<?xml version="1.0" encoding="UTF-8"?><svg id="Layer_2" xmlns="http://www.w3.org/2000/svg" width="42.74mm" height="66.77mm" viewBox="0 0 121.14 189.27"><defs><style>.cls-1{fill:#e99370;}.cls-2{fill:#c3aba5;}.cls-3{fill:#133243;}.cls-4{fill:#53ada4;}.cls-5{fill:#4d615f;}.cls-6{fill:#e99471;}.cls-7{fill:#435553;}.cls-8{fill:#ead3cd;}</style></defs><g id="chinup"><g><rect class="cls-8" x="12.44" y="1.87" width="2.76" height="187.41"/><rect class="cls-8" x="106.4" width="2.76" height="187.41"/><rect class="cls-8" y="13.96" width="121.14" height="2.46"/><ellipse class="cls-6" cx="60.34" cy="39.54" rx="10.15" ry="14.47"/><rect class="cls-1" x="57.91" y="51.42" width="5.69" height="7.43"/><path class="cls-7" d="M67.35,93.84c-3.34-.12-6.65,6.33-6.9,11.86-.1,2.16,.34,4.05,1.21,7.85,.84,3.63,1.54,5.29,3.55,11.09,3.33,9.61,3.48,11.02,4.62,11.41,2.48,.84,6.11-4.36,7.63-9.54,3.92-13.34-4.47-32.45-10.11-32.66Z"/><rect class="cls-6" x="39.32" y="15.2" width="8.33" height="30.79" rx="3.43" ry="3.43" transform="translate(.54 -.75) rotate(.99)"/><rect class="cls-6" x="69.69" y="40.34" width="8.33" height="29.58" rx="3.43" ry="3.43" transform="translate(25.92 -23.59) rotate(21.92)"/><path class="cls-4" d="M63.03,57.39c10.21,2.91,11.7,38.61,2,43.47-3.8,1.9-8.13,1.28-8.13,1.28s-3.27-.47-6.04-2.44c-7.29-5.17-9.57-24.74,.7-36,1.88-2.06,6.93-7.6,11.47-6.31Z"/><rect class="cls-6" x="42.34" y="42.96" width="8.33" height="25.32" rx="3.43" ry="3.43" transform="translate(-11.05 11.53) rotate(-12.64)"/><path class="cls-5" d="M68.97,174.26c-4.18-.34-1.1-35.76-2.02-43.76-.05-.43-.22-1.76,.49-2.77,1.02-1.46,3.42-1.64,4.59-1.27,4.98,1.55,5.92,18.5,2.92,32.53-.24,1.12-3.31,15.5-5.99,15.28Z"/><path class="cls-2" d="M43.46,179.47c1.02,.1,1.8,.09,2.15,.09,3.33-.06,8.73-.16,9.32-1.99,.53-1.63-2.68-4.99-6.37-5.65-5.53-.99-11.05,4.25-10.51,5.94,.35,1.12,3.57,1.43,5.42,1.61Z"/><path class="cls-2" d="M70.92,177.29c1.02,.05,1.8,0,2.15-.01,3.32-.22,8.72-.57,9.22-2.42,.45-1.66-2.91-4.86-6.63-5.35-5.57-.74-10.84,4.76-10.22,6.42,.4,1.1,3.64,1.26,5.49,1.36Z"/><path class="cls-3" d="M70.6,32.14c.18,.39,1.71,3.67,.53,4.84-.94,.94-3.06-.05-7.81-2.04-9.94-4.16-12.21-4.66-12.2-6.09,0-1.77,3.49-3.28,5.72-3.77,5.74-1.25,11.61,2.43,13.76,7.06Z"/><path class="cls-3" d="M52.48,27.14c-2.14,.13-3.18,4.07-3.37,4.77-.55,2.08-.28,3.8,0,5.53,.27,1.68,.61,3.8,1.52,4.01,.17,.04,.81,.11,2.53-2.67,2.15-3.48,3.38-5.48,2.86-7.82-.42-1.87-1.95-3.91-3.54-3.82Z"/><ellipse class="cls-6" cx="48.7" cy="39.54" rx="2.2" ry="3.22"/><rect class="cls-6" x="76.27" y="13.91" width="8.33" height="29.86" rx="3.43" ry="3.43" transform="translate(4.02 -9.39) rotate(6.85)"/><path class="cls-7" d="M49.46,93.84c3.19-.58,7.2,5.36,8.16,10.8,.38,2.12,.2,4.06-.15,7.94-.34,3.71-.79,5.45-1.98,11.47-1.96,9.97-1.91,11.39-2.96,11.93-2.27,1.17-6.43-3.48-8.56-8.4-5.49-12.67,.09-32.75,5.48-33.73Z"/><path class="cls-5" d="M41.23,177.31c4.04,.66,9.53-34.46,12.29-42.02,.15-.4,.63-1.65,.19-2.81-.62-1.66-2.85-2.4-4.05-2.33-5.08,.33-10,16.56-10.48,30.9-.04,1.14-.54,15.83,2.05,16.25Z"/><path class="cls-2" d="M43.56,179.59c1.02,.05,1.8,0,2.15-.01,3.32-.22,8.72-.57,9.22-2.42,.45-1.66-2.91-4.86-6.63-5.35-5.57-.74-10.84,4.76-10.22,6.42,.4,1.1,3.64,1.26,5.49,1.36Z"/></g></g></svg>