<?xml version="1.0" encoding="UTF-8"?><svg id="Layer_2" xmlns="http://www.w3.org/2000/svg" width="31.13mm" height="53.75mm" viewBox="0 0 88.24 152.37"><defs><style>.cls-1{fill:#e99370;}.cls-2{fill:#c3aba5;}.cls-3{fill:#133243;}.cls-4{fill:#53ada4;}.cls-5{fill:#4d615f;}.cls-6{fill:#e99471;}.cls-7{fill:#435553;}.cls-8{fill:#ead3cc;}</style></defs><g id="bicep_cable_curl"><g><ellipse class="cls-6" cx="15.26" cy="16.65" rx="9.8" ry="13.98"/><rect class="cls-1" x="13.01" y="29.65" width="5.5" height="7.18"/><path class="cls-7" d="M22.49,71.19c-3.22-.12-6.42,6.11-6.67,11.45-.1,2.08,.33,3.91,1.17,7.58,.81,3.5,1.49,5.11,3.43,10.71,3.22,9.28,3.36,10.64,4.46,11.02,2.39,.81,5.9-4.21,7.37-9.21,3.78-12.88-4.31-31.34-9.77-31.54Z"/><rect class="cls-6" x="21.04" y="38.48" width="8.04" height="24.45" rx="3.43" ry="3.43" transform="translate(-5.61 3.18) rotate(-6.54)"/><rect class="cls-6" x="27.26" y="35.35" width="8.04" height="28.57" rx="3.43" ry="3.43" transform="translate(29.01 -8.99) rotate(30)"/><path class="cls-4" d="M17.78,34.98c9.86,2.81,11.3,37.29,1.94,41.98-3.67,1.84-7.85,1.23-7.85,1.23s-3.16-.46-5.83-2.35c-7.04-5-9.24-23.89,.67-34.77,1.81-1.99,6.69-7.34,11.07-6.09Z"/><rect class="cls-6" x="2.87" y="41.86" width="8.04" height="24.45" rx="3.43" ry="3.43" transform="translate(-6.12 1.14) rotate(-6.54)"/><path class="cls-5" d="M9.85,72.84c-3.75-.5-8.46,5.43-9.6,10.81-.44,2.1-.24,4.01,.17,7.82,.39,3.65,.93,5.35,2.31,11.25,2.29,9.78,2.24,11.18,3.47,11.69,2.66,1.1,7.56-3.57,10.07-8.46,6.46-12.6-.08-32.26-6.42-33.11Z"/><path class="cls-7" d="M22.26,146.26c4.56,.32,7.1-30.72,9.41-37.5,.12-.36,.53-1.48-.07-2.47-.86-1.41-3.41-1.92-4.73-1.78-5.61,.6-9.44,15.1-8.53,27.67,.07,1,1,13.87,3.92,14.08Z"/><path class="cls-5" d="M7.41,151.12c-4.04-.33-1.07-34.53-1.95-42.26-.05-.41-.21-1.7,.47-2.68,.99-1.41,3.3-1.58,4.43-1.23,4.81,1.5,5.72,17.86,2.82,31.42-.23,1.08-3.2,14.96-5.79,14.75Z"/><path class="cls-2" d="M6.73,150.82c.99,.1,1.74,.09,2.07,.08,3.22-.06,8.43-.16,9-1.92,.51-1.58-2.59-4.82-6.16-5.46-5.35-.96-10.67,4.11-10.15,5.74,.34,1.08,3.45,1.38,5.23,1.56Z"/><path class="cls-2" d="M25.37,148.61c.99,.05,1.74,0,2.07-.01,3.21-.21,8.42-.55,8.9-2.34,.43-1.6-2.81-4.69-6.4-5.16-5.38-.71-10.47,4.6-9.87,6.2,.39,1.06,3.51,1.22,5.3,1.31Z"/><path class="cls-3" d="M22.99,2.85c.32,.27,3.04,2.54,2.47,4.04-.46,1.2-2.77,1.19-7.85,1.35-10.64,.34-12.88,.81-13.46-.45-.72-1.56,1.78-4.28,3.59-5.61,4.64-3.41,11.42-2.52,15.25,.67Z"/><path class="cls-3" d="M6.84,5.54c-2.85,.16-4.24,4.79-4.49,5.61-.73,2.44-.37,4.47,0,6.5,.36,1.97,.81,4.47,2.02,4.71,.22,.04,1.07,.13,3.36-3.14,2.87-4.09,4.51-6.44,3.81-9.2-.56-2.2-2.6-4.6-4.71-4.49Z"/><ellipse class="cls-6" cx="7.53" cy="17.72" rx="2.13" ry="3.11"/><rect class="cls-8" x="1.22" y="40.27" width="42.69" height="4.65" transform="translate(-11.38 8.37) rotate(-16.85)"/><rect class="cls-8" x="55.75" y="35.21" width="1.26" height="125.23" transform="translate(-41.36 41.3) rotate(-30)"/><rect class="cls-6" x="9.75" y="41.86" width="8.04" height="24.45" rx="3.43" ry="3.43" transform="translate(25.67 -.44) rotate(26.59)"/></g></g></svg>