<?xml version="1.0" encoding="UTF-8"?><svg id="Layer_2" xmlns="http://www.w3.org/2000/svg" width="23.73mm" height="44.48mm" viewBox="0 0 67.25 126.09"><defs><style>.cls-1{fill:#4e615f;}.cls-2{fill:#c3aba5;}.cls-3{fill:#133243;}.cls-4{fill:#53ada4;}.cls-5{fill:#4d615f;}.cls-6{fill:#565352;}.cls-7{fill:#e99471;}</style></defs><g id="concentration_curl"><g><circle class="cls-6" cx="35.4" cy="87.73" r="27.94"/><path class="cls-5" d="M39.56,55.53c-2.99,1.72-2.62,8.99-.05,13.81,1.01,1.88,2.35,3.24,5.04,5.97,2.57,2.61,4.03,3.63,8.73,7.43,7.79,6.3,8.63,7.42,9.83,7.12,2.6-.65,3.15-7.04,1.86-12.25-3.32-13.43-20.36-25-25.42-22.09Z"/><path class="cls-1" d="M12.37,124.49c4.15,.29,6.46-27.94,8.55-34.11,.11-.33,.48-1.35-.06-2.25-.78-1.29-3.1-1.75-4.3-1.62-5.11,.55-8.58,13.73-7.76,25.16,.07,.91,.91,12.62,3.57,12.81Z"/><path class="cls-5" d="M51.2,123.35c-3.5-1.16,7.86-33.93,9.04-41.65,.06-.41,.24-1.7,1.1-2.52,1.24-1.17,3.33-.86,4.25-.28,3.88,2.46,.52,18.62-5.5,31.25-.48,1.01-6.65,13.94-8.89,13.2Z"/><path class="cls-2" d="M4.79,126.01c.9,.09,1.58,.08,1.88,.08,2.93-.05,7.67-.14,8.19-1.75,.46-1.44-2.35-4.38-5.6-4.96-4.86-.87-9.7,3.74-9.23,5.22,.31,.98,3.14,1.26,4.76,1.42Z"/><path class="cls-2" d="M54.31,124.47c.9,.05,1.59,0,1.89-.01,2.92-.19,7.66-.5,8.1-2.13,.39-1.45-2.55-4.27-5.82-4.7-4.9-.65-9.52,4.18-8.98,5.64,.36,.96,3.19,1.11,4.82,1.19Z"/><path class="cls-5" d="M34.47,55.37c3.28,1.56,4.22,8.58,2.52,13.31-.66,1.85-1.76,3.2-3.94,5.92-2.09,2.6-3.36,3.63-7.35,7.45-6.62,6.33-7.25,7.43-8.49,7.18-2.7-.54-4.39-6.68-4.04-11.75,.9-13.05,15.76-24.76,21.31-22.12Z"/><rect class="cls-7" x="47.05" y="25.65" width="7.32" height="39.95" rx="2.96" ry="2.96" transform="translate(-11.05 16.66) rotate(-16.85)"/><path class="cls-4" d="M40.43,17.33c11.06,3,13.04,38.53,2.61,43.27-4.08,1.85-8.77,1.19-8.77,1.19s-3.54-.5-6.55-2.49c-7.93-5.22-10.6-24.7,.38-35.81,2-2.03,7.41-7.49,12.32-6.16Z"/><rect class="cls-7" x="20.71" y="24.15" width="8.26" height="36.76" rx="3.34" ry="3.34" transform="translate(15.5 -5.83) rotate(19.36)"/><rect class="cls-7" x="15.8" y="56.18" width="7.31" height="22.24" rx="2.96" ry="2.96" transform="translate(-7.54 2.65) rotate(-6.54)"/><rect class="cls-7" x="47.96" y="57.2" width="8.13" height="30.65" rx="3.29" ry="3.29" transform="translate(18.01 -9.99) rotate(13.25)"/><ellipse cx="53.93" cy="86.5" rx="5.72" ry="9.01"/><ellipse cx="39.61" cy="87.73" rx="5.72" ry="9.01"/><ellipse class="cls-7" cx="44.22" cy="14.68" rx="8.91" ry="12.71"/><ellipse cx="47.86" cy="87.53" rx="4.07" ry="1.04"/><path class="cls-3" d="M37.35,4.82c-2.59,.14-3.86,4.35-4.08,5.1-.67,2.22-.34,4.06,0,5.92,.32,1.79,.74,4.07,1.84,4.28,.2,.04,.98,.12,3.06-2.86,2.61-3.72,4.1-5.86,3.47-8.36-.51-2-2.36-4.19-4.28-4.08Z"/><ellipse class="cls-7" cx="35.4" cy="12.48" rx="1.93" ry="2.83"/><path class="cls-3" d="M51.69,2.59c.29,.24,2.76,2.31,2.24,3.67-.42,1.1-2.52,1.08-7.14,1.22-9.68,.31-11.71,.74-12.24-.41-.65-1.42,1.62-3.89,3.26-5.1,4.22-3.1,10.39-2.3,13.87,.61Z"/></g></g></svg>