<?xml version="1.0" encoding="UTF-8"?><svg id="Layer_2" xmlns="http://www.w3.org/2000/svg" width="42.13mm" height="25.2mm" viewBox="0 0 119.44 71.42"><defs><style>.cls-1{fill:#c3aba5;}.cls-2{fill:#133243;}.cls-3{fill:#53ada4;}.cls-4{fill:#4d615f;}.cls-5{fill:#e99471;}</style></defs><g id="hollow_hold"><g><ellipse class="cls-5" cx="26.43" cy="41.63" rx="9.56" ry="13.64" transform="translate(-15.63 15.89) rotate(-26.12)"/><path class="cls-5" d="M27.74,29.26l6.26,6.07s3.8,.91,3.06,3.6-4.93,14.32-4.93,14.32l-4.39-23.99Z"/><path class="cls-2" d="M25.68,28.06c3.9,2.53-.33,16.32-2,20.57-.31,.8-.77,1.87-1.7,2.05-2.6,.5-8.14-6.13-8.02-12.23,.14-7.43,8.61-12.41,11.72-10.4Z"/><ellipse class="cls-2" cx="14.05" cy="36.06" rx="3.05" ry="1.12" transform="translate(-24.57 38.57) rotate(-72.43)"/><path class="cls-2" d="M14.43,34.13c-.92-1.61-9.45-.28-11.1,3.91-.77,1.95,.64,2.78,.28,5.93-.55,4.71-4.19,6.99-3.53,7.81,.61,.75,4.37-.22,6.38-2.93,2.09-2.81,.32-4.86,2.62-7.67,1.25-1.52,2.41-1.71,4.04-4.08,.94-1.36,1.64-2.37,1.3-2.97Z"/><rect class="cls-5" x="28.01" y="51.24" width="5.07" height="9.07" transform="translate(-21.44 19.14) rotate(-26.12)"/><path class="cls-3" d="M67.9,70.47c-1.71,1.4-5.61,.94-11.39,.56-3.78-.25-7.16-.37-10.18-.44v-10.4c6.6-.73,13.36-.18,17.72,2.42,3.7,2.21,5.99,6.1,3.85,7.85Z"/><path class="cls-4" d="M61.79,67.05c1.67,2.74,8.78,1.67,13.5-1.31,1.85-1.16,3.19-2.61,5.87-5.49,2.57-2.76,3.57-4.28,7.32-9.23,6.21-8.2,7.31-9.13,7.02-10.26-.62-2.46-6.86-2.37-11.97-.61-13.15,4.55-24.57,22.26-21.75,26.9Z"/><path class="cls-4" d="M114.46,11.69c2.72,2.53-16.95,23.75-20.29,29.43-.18,.3-.72,1.26-1.71,1.52-1.43,.38-3.18-.83-3.81-1.71-2.68-3.76,5.06-15.25,14.1-22.67,.72-.59,9.97-8.2,11.72-6.57Z"/><path class="cls-1" d="M115.41,10.09c.54-.73,.89-1.33,1.04-1.6,1.46-2.57,3.83-6.74,2.7-8.01-1.01-1.14-5.02-.21-7.19,2.31-3.26,3.77-1.75,10.35-.22,10.71,1.01,.24,2.71-2.08,3.68-3.4Z"/><path class="cls-3" d="M51.7,60.44l-5.06,9.94c-10.81-5.76-16.34-7.34-16.35-9.48-.02-2.46,7.19-2.7,10.22-2.6,3.45,.12,7.4,.86,11.19,2.14Z"/><rect class="cls-5" x="19" y="8.38" width="7.39" height="56.8" rx="3.24" ry="3.24" transform="translate(58.26 61.33) rotate(156.28)"/></g></g></svg>