<?xml version="1.0" encoding="UTF-8"?><svg id="Layer_2" xmlns="http://www.w3.org/2000/svg" width="42.68mm" height="19.83mm" viewBox="0 0 120.98 56.21"><defs><style>.cls-1{fill:#c3aba5;}.cls-2{fill:#133243;}.cls-3{fill:#53ada4;}.cls-4{fill:#4d615f;}.cls-5{fill:#e99471;}</style></defs><g id="Sit-up"><g><ellipse class="cls-5" cx="29.62" cy="15.58" rx="10.07" ry="14.36"/><path class="cls-5" d="M36.59,4.49l3.1,8.64s3.17,2.62,1.23,4.82-11.3,11.25-11.3,11.25l6.97-24.71Z"/><path class="cls-2" d="M35.2,2.41c2.51,4.2-7.88,15.27-11.42,18.52-.67,.61-1.6,1.41-2.56,1.15-2.69-.73-4.85-9.56-1.92-15.28C22.87-.15,33.2-.94,35.2,2.41Z"/><ellipse class="cls-2" cx="20.5" cy="4.58" rx="3.22" ry="1.18" transform="translate(3.03 16.24) rotate(-46.31)"/><path class="cls-2" d="M21.75,2.93c-.12-1.95-8.8-4.65-12.3-1.45-1.63,1.49-.68,2.93-2.49,5.73C4.26,11.41-.24,11.88,0,12.96c.23,.99,4.24,1.81,7.39,.19,3.28-1.69,2.55-4.45,6.03-6.04,1.88-.86,3.07-.5,5.71-1.98,1.52-.85,2.65-1.48,2.6-2.21Z"/><rect class="cls-5" x="24.28" y="26.09" width="5.34" height="9.55"/><path class="cls-3" d="M23.94,34.93c.47-2.18,6.53-1.83,9.04-1.5,7.54,.98,17.08,6.14,18.98,12.98,.96,3.47,.04,7.68-2.33,8.16-1.9,.38-4.04-1.75-7.39-4.64-11.98-10.34-18.8-12.62-18.29-15Z"/><rect class="cls-5" x="18.69" y="25.05" width="7.78" height="25.77" rx="3.89" ry="3.89" transform="translate(-21.08 44.52) rotate(-67.81)"/><path class="cls-4" d="M47.12,52.87c1.21,3.16,9.06,3.11,14.75,.66,2.22-.95,3.96-2.28,7.44-4.94,3.33-2.54,4.73-4,9.78-8.68,8.37-7.76,9.75-8.58,9.68-9.83-.14-2.71-6.86-3.56-12.7-2.47-15.05,2.83-31,19.9-28.95,25.25Z"/><path class="cls-4" d="M107.62,54.39c-2.95,2.58-21.16-17.8-26.33-21.34-.28-.19-1.15-.76-1.26-1.76-.16-1.43,1.31-3.11,2.29-3.69,4.16-2.48,14.47,5.67,20.52,14.93,.48,.74,6.68,10.22,4.79,11.87Z"/><path class="cls-1" d="M110.33,56.18c.96,.05,1.69,0,2.01-.01,3.1-.2,8.14-.53,8.61-2.26,.42-1.55-2.71-4.54-6.19-4.99-5.21-.69-10.12,4.44-9.55,6,.38,1.02,3.4,1.18,5.12,1.27Z"/><rect class="cls-5" x="11.7" y="12.53" width="7.78" height="25.77" rx="3.24" ry="3.24" transform="translate(7.63 -3.32) rotate(16.03)"/></g></g></svg>