<?xml version="1.0" encoding="UTF-8"?><svg id="Layer_2" xmlns="http://www.w3.org/2000/svg" width="41.93mm" height="18.55mm" viewBox="0 0 118.87 52.58"><defs><style>.cls-1{fill:#c3aba5;}.cls-2{fill:#133243;}.cls-3{fill:#53ada4;}.cls-4{fill:#4d615f;}.cls-5{fill:#e99471;}</style></defs><g id="Weighted_plank"><g><ellipse class="cls-5" cx="106.53" cy="23.32" rx="11.97" ry="8.39" transform="translate(.25 47.77) rotate(-25.3)"/><path class="cls-5" d="M117.37,24.62l-5.41,5.42s-.84,3.32-3.2,2.64-12.5-4.51-12.5-4.51l21.11-3.55Z"/><path class="cls-2" d="M118.45,22.83c-2.27,3.39-14.31-.5-18.03-2.01-.7-.28-1.63-.7-1.78-1.52-.41-2.29,5.48-7.06,10.83-6.89,6.51,.21,10.79,7.72,8.98,10.41Z"/><ellipse class="cls-2" cx="111.57" cy="12.52" rx=".99" ry="2.68" transform="translate(64.49 114.45) rotate(-71.61)"/><path class="cls-2" d="M113.27,12.88c1.43-.78,.37-8.29-3.29-9.79-1.7-.7-2.45,.53-5.21,.17-4.12-.54-6.09-3.77-6.81-3.19-.66,.52,.14,3.84,2.49,5.64,2.44,1.87,4.26,.34,6.7,2.4,1.32,1.11,1.47,2.13,3.53,3.6,1.18,.84,2.06,1.47,2.59,1.17Z"/><rect class="cls-5" x="91.84" y="22.77" width="4.45" height="7.96" transform="translate(78.05 -69.72) rotate(64.7)"/><path class="cls-3" d="M92.96,26.77c1.2,2.6-3.98,7.37-6.26,9.17-6.84,5.4-18.33,8.28-24.83,3-3.3-2.68-5.6-7.71-4.02-10.21,1.26-2,4.55-1.66,9.36-1.58,17.23,.28,24.43-3.21,25.74-.38Z"/><path class="cls-4" d="M65.49,30.7c-.38-2.79-6.47-4.43-11.32-3.7-1.89,.29-3.48,.97-6.65,2.34-3.04,1.31-4.38,2.18-9.13,4.84-7.88,4.4-9.09,4.76-9.26,5.77-.37,2.2,4.68,4.33,9.41,4.7,12.18,.97,27.6-9.24,26.96-13.96Z"/><path class="cls-4" d="M0,40.38c.27-3.25,25.58-1.17,31.31-1.95,.31-.04,1.26-.19,1.98,.36,1.04,.78,1.15,2.64,.88,3.56-1.14,3.88-13.27,4.77-23.29,2.56-.8-.18-11.06-2.44-10.89-4.52Z"/><path class="cls-1" d="M.12,44.06c.07,.8,.18,1.39,.24,1.66,.52,2.54,1.35,6.66,2.84,6.86,1.32,.17,3.44-2.75,3.43-5.67-.02-4.38-4.81-7.86-6.03-7.21-.8,.43-.59,2.94-.47,4.37Z"/><rect class="cls-5" x="85.02" y="27.27" width="6.48" height="23.34" rx="3.24" ry="3.24" transform="translate(-7.25 25.36) rotate(-15.72)"/><rect class="cls-5" x="96.86" y="35.36" width="6.48" height="23.34" rx="3.24" ry="3.24" transform="translate(51.34 146.31) rotate(-89.01)"/><ellipse cx="68.9" cy="25.65" rx="17.56" ry="2.7"/></g></g></svg>