<?xml version="1.0" encoding="UTF-8"?><svg id="Layer_2" xmlns="http://www.w3.org/2000/svg" width="26.69mm" height="26.22mm" viewBox="0 0 75.66 74.33"><defs><style>.cls-1{fill:#e99370;}.cls-2{fill:#c3aba5;}.cls-3{fill:#133243;}.cls-4{fill:#53ada4;}.cls-5{fill:#4d615f;}.cls-6{fill:#e99471;}.cls-7{fill:#435553;}</style></defs><g id="L-sit"><g><ellipse class="cls-6" cx="12.47" cy="13.6" rx="8.01" ry="11.42"/><rect class="cls-1" x="10.63" y="24.23" width="4.49" height="5.86"/><rect class="cls-6" x="18.21" y="31.41" width="6.57" height="43.33" rx="3.29" ry="3.29" transform="translate(-11.1 5.99) rotate(-12.64)"/><path class="cls-4" d="M14.53,28.58c8.05,2.29,9.24,30.47,1.58,34.3-3,1.5-6.41,1.01-6.41,1.01s-2.58-.37-4.77-1.92c-5.75-4.08-7.55-19.52,.55-28.41,1.48-1.62,5.47-6,9.05-4.98Z"/><path class="cls-7" d="M12.63,53.81c-1.02,2.43,2.83,6.66,6.84,8.39,1.57,.67,3.09,.87,6.13,1.28,2.91,.39,4.33,.33,9.17,.45,8.02,.2,9.11,.49,9.71-.25,1.31-1.6-1.53-5.72-4.93-8.28-8.77-6.59-25.21-5.7-26.93-1.59Z"/><path class="cls-5" d="M1.39,58.17c-1.11,2.88,2.7,7.76,6.76,9.69,1.58,.75,3.14,.95,6.24,1.36,2.97,.39,4.43,.28,9.38,.31,8.21,.05,9.31,.36,9.95-.52,1.39-1.91-1.39-6.69-4.8-9.61-8.78-7.54-25.65-6.09-27.53-1.22Z"/><path class="cls-7" d="M70.9,66.4c.55-3.61-24.56-7.7-29.94-9.99-.29-.12-1.18-.52-2.01-.11-1.21,.59-1.78,2.59-1.75,3.65,.13,4.51,11.69,8.52,21.99,8.64,.82,0,11.36,.12,11.72-2.19Z"/><path class="cls-5" d="M61.88,70.46c-.75,3.7-28.27-1.75-34.67-1.55-.34,.01-1.41,.06-2.13-.65-1.03-1.02-.9-3.17-.47-4.19,1.8-4.32,15.24-3.87,25.94-.12,.85,.3,11.81,4.14,11.33,6.51Z"/><path class="cls-2" d="M70.82,67.01c.58-.56,.97-1.04,1.14-1.25,1.66-2.04,4.35-5.35,3.55-6.63-.72-1.15-4.37-.92-6.65,.96-3.42,2.83-3.06,8.82-1.77,9.36,.85,.36,2.68-1.42,3.73-2.44Z"/><path class="cls-2" d="M63.46,71.6c.54-.6,.9-1.1,1.05-1.33,1.51-2.15,3.97-5.64,3.08-6.86-.8-1.1-4.42-.62-6.57,1.43-3.21,3.06-2.44,9.02-1.11,9.46,.87,.29,2.58-1.61,3.55-2.7Z"/><path class="cls-3" d="M18.78,2.33c.26,.22,2.48,2.07,2.02,3.3-.38,.98-2.26,.97-6.41,1.1-8.69,.27-10.52,.66-11-.37-.59-1.27,1.46-3.5,2.93-4.58,3.79-2.78,9.33-2.06,12.46,.55Z"/><path class="cls-3" d="M5.59,4.52c-2.33,.13-3.46,3.91-3.67,4.58-.6,1.99-.3,3.65,0,5.31,.29,1.61,.66,3.65,1.65,3.85,.18,.04,.88,.11,2.75-2.57,2.34-3.35,3.68-5.26,3.12-7.51-.46-1.8-2.12-3.76-3.85-3.67Z"/><ellipse class="cls-6" cx="6.16" cy="14.48" rx="1.74" ry="2.54"/><rect class="cls-6" x="4.61" y="34.95" width="6.57" height="39.38" rx="3.29" ry="3.29"/></g></g></svg>