<?xml version="1.0" encoding="UTF-8"?><svg id="Layer_2" xmlns="http://www.w3.org/2000/svg" width="45.37mm" height="23.53mm" viewBox="0 0 128.62 66.69"><defs><style>.cls-1{fill:#425452;}.cls-2{fill:#c3aba5;}.cls-3{fill:#133243;}.cls-4{fill:#53ada4;}.cls-5{fill:#4d615f;}.cls-6{fill:#e99471;}.cls-7{fill:#40524f;}.cls-8{fill:#ae9a94;}</style></defs><g id="glute_bridge"><g><ellipse class="cls-6" cx="15.09" cy="38" rx="13.91" ry="9.75"/><path class="cls-6" d="M4.35,31.25l8.37-3s2.54-3.07,4.67-1.19,10.9,10.94,10.9,10.94L4.35,31.25Z"/><path class="cls-3" d="M2.33,32.6c4.07-2.43,14.79,7.63,17.94,11.06,.59,.65,1.37,1.55,1.11,2.48-.71,2.6-9.26,4.7-14.8,1.86C-.15,44.54-.91,34.53,2.33,32.6Z"/><ellipse class="cls-3" cx="4.44" cy="46.83" rx="1.14" ry="3.11" transform="translate(-32.49 17.69) rotate(-46.31)"/><path class="cls-3" d="M2.83,45.62c-1.89,.12-4.5,8.52-1.4,11.91,1.44,1.58,2.84,.66,5.55,2.41,4.06,2.62,4.52,6.98,5.57,6.74,.95-.22,1.76-4.1,.18-7.16-1.64-3.17-4.31-2.47-5.85-5.84-.83-1.82-.48-2.97-1.92-5.53-.82-1.47-1.44-2.56-2.14-2.52Z"/><path class="cls-7" d="M61.16,13.28c-.43,2.77,8,4.54,15.43,3.93,2.9-.24,5.49-.88,10.67-2.16,4.96-1.23,7.25-2.05,15.22-4.57,13.21-4.17,15.13-4.5,15.74-5.49,1.33-2.16-5.39-4.39-12.25-4.87-17.66-1.25-44.09,8.49-44.82,13.17Z"/><rect class="cls-6" x="27.31" y="35.96" width="5.17" height="9.25" transform="translate(-10.69 70.48) rotate(-90)"/><path class="cls-4" d="M33.61,43.21c-2.68-1.96-.09-9.74,1.21-12.84,3.92-9.34,13.99-18.72,23.57-17,4.86,.88,10.03,4.69,9.82,8.12-.16,2.74-3.69,4.24-8.63,6.87-17.68,9.4-23.04,16.99-25.96,14.84Z"/><rect class="cls-6" x="55.4" y="15.05" width="7.53" height="51.48" rx="3.77" ry="3.77" transform="translate(18.38 99.95) rotate(-90)"/><path class="cls-5" d="M62.7,16.54c.05,3.3,7.84,5.52,14.37,4.89,2.55-.25,4.76-.98,9.17-2.44,4.23-1.4,6.14-2.36,12.85-5.26,11.12-4.81,12.78-5.17,13.17-6.36,.84-2.57-5.49-5.31-11.68-5.98-15.94-1.72-37.96,9.57-37.88,15.15Z"/><path class="cls-1" d="M117.27,42.47c-3.29,.01-3.09-29.89-4.3-36.53-.06-.35-.28-1.46,.21-2.36,.71-1.3,2.57-1.62,3.51-1.4,3.99,.95,5.79,15.08,4.31,27.06-.12,.95-1.63,13.22-3.73,13.23Z"/><path class="cls-5" d="M114.63,42.93c-3.77,.46-7.42-28.82-9.66-35.15-.12-.34-.51-1.39-.06-2.34,.64-1.37,2.73-1.94,3.84-1.85,4.69,.38,8.58,13.96,8.45,25.88-.01,.95-.14,13.16-2.56,13.46Z"/><path class="cls-8" d="M118.3,45.28c.93,.05,1.63,0,1.94-.01,3.01-.2,7.88-.51,8.34-2.19,.41-1.5-2.63-4.39-5.99-4.84-5.04-.66-9.8,4.3-9.25,5.81,.37,.99,3.29,1.14,4.96,1.23Z"/><path class="cls-2" d="M112.51,47.02c.93,.05,1.63,0,1.94-.01,3.01-.2,7.88-.51,8.34-2.19,.41-1.5-2.63-4.39-5.99-4.84-5.04-.66-9.8,4.3-9.25,5.81,.37,.99,3.29,1.14,4.96,1.23Z"/></g></g></svg>