<?xml version="1.0" encoding="UTF-8"?><svg id="Layer_2" xmlns="http://www.w3.org/2000/svg" width="26.12mm" height="34.26mm" viewBox="0 0 74.04 97.11"><defs><style>.cls-1{fill:#c3aba5;}.cls-2{fill:#133243;}.cls-3{fill:#53ada4;}.cls-4{fill:#4d615f;}.cls-5{fill:#e99471;}</style></defs><g id="lunge"><g><ellipse class="cls-5" cx="39.09" cy="12.99" rx="8.39" ry="11.97"/><path class="cls-5" d="M44.9,3.75l2.58,7.21s2.64,2.18,1.02,4.02-9.42,9.38-9.42,9.38L44.9,3.75Z"/><path class="cls-2" d="M43.74,2.01c2.09,3.5-6.57,12.73-9.52,15.44-.56,.51-1.33,1.18-2.13,.96-2.24-.61-4.04-7.97-1.6-12.74C33.47-.13,42.08-.78,43.74,2.01Z"/><ellipse class="cls-2" cx="31.49" cy="3.82" rx="2.68" ry=".99" transform="translate(6.97 23.95) rotate(-46.31)"/><path class="cls-2" d="M32.53,2.44c-.1-1.62-7.34-3.87-10.26-1.21-1.36,1.24-.57,2.44-2.07,4.78-2.25,3.5-6.01,3.89-5.8,4.8,.19,.82,3.53,1.51,6.16,.15,2.73-1.41,2.13-3.71,5.03-5.03,1.57-.72,2.56-.41,4.76-1.65,1.26-.71,2.21-1.24,2.17-1.84Z"/><path class="cls-4" d="M37.71,63.53c-.58,2.04,3.87,4.85,8.06,5.66,1.64,.32,3.15,.27,6.18,.18,2.9-.09,4.27-.33,9-.88,7.83-.92,8.94-.84,9.4-1.5,1-1.43-2.44-4.29-6.18-5.83-9.63-3.99-25.46-1.07-26.45,2.39Z"/><rect class="cls-5" x="34.64" y="21.75" width="4.45" height="7.96"/><path class="cls-3" d="M35.75,28.61c2.68-1,7.05,4.53,8.67,6.94,4.87,7.23,6.87,18.91,1.1,24.99-2.93,3.09-8.11,5-10.48,3.23-1.89-1.41-1.31-4.66-.87-9.46,1.59-17.16-1.35-24.6,1.58-25.69Z"/><rect class="cls-5" x="34.99" y="27.68" width="6.48" height="44.31" rx="3.24" ry="3.24" transform="translate(-12.07 12.22) rotate(-15.72)"/><path class="cls-4" d="M34.29,59.03c-2.73-.51-6.48,3.4-7.57,7.09-.42,1.44-.36,2.77-.24,5.44,.12,2.55,.44,3.76,1.18,7.92,1.23,6.9,1.13,7.87,2.01,8.28,1.91,.88,5.73-2.15,7.8-5.44,5.34-8.48,1.43-22.42-3.19-23.29Z"/><path class="cls-4" d="M.04,85.93c.03-3.27,25.43-3.04,31.09-4.24,.3-.06,1.24-.28,2,.21,1.09,.7,1.34,2.55,1.14,3.49-.85,3.96-12.88,5.73-23.04,4.26-.81-.12-11.21-1.62-11.19-3.71Z"/><path class="cls-1" d="M.12,88.59c.07,.8,.18,1.39,.24,1.66,.52,2.54,1.35,6.66,2.84,6.86,1.32,.17,3.44-2.75,3.43-5.67-.02-4.38-4.81-7.86-6.03-7.21-.8,.43-.59,2.94-.47,4.37Z"/><path class="cls-4" d="M63.17,92.29c3.68,.24,5.59-21.19,7.41-25.85,.1-.25,.42-1.02-.07-1.71-.7-.98-2.76-1.34-3.82-1.25-4.52,.39-7.54,10.39-6.75,19.07,.06,.69,.87,9.59,3.22,9.74Z"/><path class="cls-1" d="M65.16,93.67c.8,.04,1.4,0,1.67-.01,2.59-.17,6.79-.44,7.18-1.89,.35-1.29-2.26-3.78-5.16-4.16-4.34-.57-8.44,3.71-7.96,5,.31,.85,2.83,.98,4.27,1.06Z"/></g></g></svg>