<?xml version="1.0" encoding="UTF-8"?><svg id="Layer_2" xmlns="http://www.w3.org/2000/svg" width="22.43mm" height="37.23mm" viewBox="0 0 63.59 105.53"><defs><style>.cls-1{fill:#c3aba5;}.cls-2{fill:#133243;}.cls-3{fill:#53ada4;}.cls-4{fill:#4d615f;}.cls-5{fill:#e99471;}.cls-6{fill:#435553;}</style></defs><g id="Squat"><g><ellipse class="cls-2" cx="18.18" cy="3.92" rx="2.81" ry="1.03" transform="translate(2.79 14.36) rotate(-46.31)"/><path class="cls-6" d="M7.9,64.58c-.61,2.14,4.05,5.07,8.43,5.92,1.71,.33,3.3,.28,6.47,.19,3.03-.09,4.47-.34,9.42-.93,8.2-.97,9.35-.88,9.84-1.57,1.05-1.5-2.55-4.49-6.47-6.11-10.08-4.18-26.66-1.12-27.69,2.5Z"/><rect class="cls-5" x="19.75" y="24.96" width="4.66" height="8.33" transform="translate(10.57 -5.57) rotate(18.81)"/><path class="cls-3" d="M20.75,30.8c2.99,.12,4.97,7.23,5.55,10.21,1.76,8.95-1.04,21.03-9.07,24.56-4.08,1.79-9.86,1.54-11.43-1.13-1.25-2.13,.63-5.03,3-9.48,8.49-15.92,8.68-24.29,11.94-24.16Z"/><rect class="cls-5" x="37.04" y="13.44" width="6.79" height="46.39" rx="3.39" ry="3.39" transform="translate(1.43 74.79) rotate(-86.55)"/><path class="cls-4" d="M3.56,63.36c-1.46,2.83,1.91,8.27,5.87,10.7,1.54,.95,3.12,1.33,6.26,2.08,3.01,.72,4.52,.78,9.6,1.36,8.42,.96,9.52,1.4,10.28,.57,1.63-1.8-.69-7.02-3.86-10.4-8.18-8.71-25.66-9.1-28.14-4.3Z"/><path class="cls-6" d="M34.35,101.16c3.85,.27,5.99-25.93,7.94-31.65,.1-.3,.45-1.25-.06-2.08-.72-1.19-2.88-1.62-3.99-1.5-4.74,.51-7.96,12.74-7.2,23.35,.06,.85,.85,11.71,3.31,11.88Z"/><path class="cls-4" d="M27.46,103.78c-3.36-.61,1.36-26.78,1.13-32.83-.01-.32-.07-1.33,.57-2.03,.92-1,2.87-.93,3.8-.56,3.93,1.58,3.63,14.31,.31,24.53-.26,.81-3.66,11.28-5.81,10.89Z"/><path class="cls-1" d="M29.65,105.46c.83,.08,1.47,.07,1.75,.07,2.71-.05,7.12-.13,7.6-1.62,.43-1.33-2.18-4.06-5.19-4.6-4.51-.81-9,3.47-8.57,4.84,.29,.91,2.91,1.17,4.41,1.31Z"/><path class="cls-1" d="M36.64,103.94c.83,.04,1.47,0,1.75-.01,2.71-.18,7.1-.46,7.51-1.97,.37-1.35-2.37-3.96-5.4-4.36-4.54-.6-8.83,3.88-8.33,5.24,.33,.89,2.96,1.03,4.47,1.11Z"/><ellipse class="cls-5" cx="25.86" cy="13.29" rx="8.79" ry="12.84"/><path class="cls-5" d="M31.94,3.92l2.71,7.54s2.77,2.29,1.07,4.21-9.86,9.82-9.86,9.82L31.94,3.92Z"/><path class="cls-2" d="M30.72,2.1c2.19,3.67-6.88,13.32-9.97,16.16-.58,.54-1.39,1.23-2.23,1-2.34-.64-4.23-8.35-1.67-13.33C19.96-.13,28.98-.82,30.72,2.1Z"/><path class="cls-2" d="M18.99,2.55c-.1-1.7-7.68-4.06-10.74-1.26-1.42,1.3-.59,2.56-2.17,5C3.72,9.96-.21,10.37,0,11.32c.2,.86,3.7,1.58,6.45,.16,2.86-1.48,2.23-3.88,5.27-5.27,1.64-.75,2.68-.43,4.99-1.73,1.32-.74,2.31-1.29,2.27-1.92Z"/></g></g></svg>