<?xml version="1.0" encoding="UTF-8"?><svg id="Layer_2" xmlns="http://www.w3.org/2000/svg" width="46.19mm" height="20.43mm" viewBox="0 0 130.92 57.91"><defs><style>.cls-1{fill:#c3aba5;}.cls-2{fill:#133243;}.cls-3{fill:#53ada4;}.cls-4{fill:#4d615f;}.cls-5{fill:#e99471;}</style></defs><g id="Push-up"><g><ellipse class="cls-5" cx="117.34" cy="25.69" rx="13.18" ry="9.25" transform="translate(.28 52.62) rotate(-25.3)"/><path class="cls-5" d="M129.28,27.12l-5.96,5.97s-.93,3.66-3.52,2.91-13.77-4.96-13.77-4.96l23.25-3.91Z"/><path class="cls-2" d="M130.46,25.15c-2.5,3.73-15.77-.55-19.86-2.21-.77-.31-1.8-.77-1.96-1.67-.45-2.52,6.03-7.78,11.93-7.59,7.18,.23,11.88,8.5,9.89,11.47Z"/><ellipse class="cls-2" cx="122.89" cy="13.79" rx="1.09" ry="2.95" transform="translate(71.03 126.06) rotate(-71.61)"/><path class="cls-2" d="M124.76,14.18c1.57-.86,.4-9.13-3.63-10.78-1.88-.77-2.7,.58-5.73,.19-4.54-.6-6.7-4.15-7.5-3.52-.73,.58,.16,4.23,2.75,6.21,2.69,2.06,4.69,.37,7.38,2.64,1.45,1.23,1.62,2.35,3.89,3.97,1.3,.92,2.27,1.61,2.85,1.29Z"/><rect class="cls-5" x="101.15" y="25.08" width="4.9" height="8.77" transform="translate(85.96 -76.79) rotate(64.7)"/><path class="cls-3" d="M102.39,29.48c1.33,2.86-4.39,8.12-6.89,10.1-7.54,5.95-20.19,9.12-27.35,3.3-3.63-2.96-6.17-8.49-4.42-11.24,1.39-2.2,5.01-1.83,10.31-1.74,18.98,.31,26.9-3.54,28.35-.42Z"/><path class="cls-4" d="M72.14,33.81c-.41-3.07-7.12-4.88-12.47-4.08-2.09,.31-3.83,1.07-7.33,2.58-3.35,1.45-4.82,2.4-10.06,5.33-8.68,4.85-10.01,5.25-10.2,6.36-.41,2.42,5.15,4.76,10.36,5.18,13.41,1.07,30.39-10.18,29.7-15.37Z"/><path class="cls-4" d="M0,44.48c.3-3.58,28.18-1.29,34.49-2.15,.34-.05,1.39-.21,2.18,.39,1.15,.86,1.27,2.91,.97,3.92-1.26,4.28-14.61,5.25-25.65,2.82-.88-.19-12.18-2.69-11.99-4.98Z"/><path class="cls-1" d="M.13,48.53c.07,.88,.2,1.53,.26,1.82,.57,2.8,1.49,7.34,3.13,7.55,1.46,.19,3.79-3.03,3.78-6.25-.02-4.82-5.3-8.66-6.64-7.94-.89,.47-.65,3.24-.52,4.82Z"/><rect class="cls-5" x="93.65" y="30.04" width="7.14" height="25.71" rx="3.05" ry="3.05" transform="translate(-7.98 27.94) rotate(-15.72)"/></g></g></svg>