<?xml version="1.0" encoding="UTF-8"?><svg id="Layer_2" xmlns="http://www.w3.org/2000/svg" width="38.31mm" height="26.86mm" viewBox="0 0 108.61 76.14"><defs><style>.cls-1{fill:#ead2cb;}.cls-2{fill:#e9d2ca;}.cls-3{fill:#c3aba5;}.cls-4{fill:#133243;}.cls-5{fill:#53ada4;}.cls-6{fill:#4d615f;}.cls-7{fill:#e13135;}.cls-8{fill:#e99471;}</style></defs><g id="Barbell_back_squat"><g><path class="cls-6" d="M24.33,74.6c3.34-.14,2.75-21.99,3.9-26.9,.06-.26,.27-1.08-.24-1.72-.73-.92-2.63-1.07-3.58-.87-4.03,.87-5.67,11.28-4.03,19.97,.13,.69,1.82,9.6,3.95,9.51Z"/><path class="cls-6" d="M80.19,74.33c-3.54-.83,1.24-22.89,.95-28.11-.02-.28-.08-1.15,.59-1.69,.96-.78,3.01-.54,3.99-.13,4.14,1.72,3.91,12.63,.51,21.11-.27,.68-3.76,9.36-6.03,8.83Z"/><path class="cls-3" d="M80.86,74.34c.77,.04,1.35,0,1.6-.01,2.48-.16,6.51-.42,6.89-1.81,.34-1.24-2.17-3.63-4.95-3.99-4.16-.55-8.1,3.56-7.64,4.8,.3,.82,2.72,.94,4.1,1.02Z"/><path class="cls-3" d="M21.59,76.13c.77,.04,1.35,0,1.6-.01,2.48-.16,6.51-.42,6.89-1.81,.34-1.24-2.17-3.63-4.95-3.99-4.16-.55-8.1,3.56-7.64,4.8,.3,.82,2.72,.94,4.1,1.02Z"/><rect class="cls-7" x="59.14" y="21.69" width="2.61" height="8.38"/><path class="cls-8" d="M52.19,2.44c2.94,2.54,5.88,5.08,8.82,7.61"/><rect class="cls-8" x="35.75" y="22.24" width="5.9" height="18.17" transform="translate(38.9 -18.47) rotate(51.24)"/><path class="cls-8" d="M31.45,21.3h0c1.63,0,2.95,1.32,2.95,2.95v15.51h-5.9v-15.51c0-1.63,1.32-2.95,2.95-2.95Z" transform="translate(67.95 54.8) rotate(169.47)"/><rect class="cls-8" x="68.25" y="20.99" width="5.9" height="18.17" transform="translate(129.92 -20.18) rotate(116.55)"/><path class="cls-8" d="M79.61,19.34h0c1.63,0,2.95,1.32,2.95,2.95v15.51h-5.9v-15.51c0-1.63,1.32-2.95,2.95-2.95Z" transform="translate(149.18 76.68) rotate(-165.08)"/><ellipse class="cls-8" cx="29.61" cy="20.21" rx="3.82" ry="2.34"/><ellipse class="cls-8" cx="82.13" cy="19.76" rx="3.44" ry="1.93"/><ellipse class="cls-8" cx="80.95" cy="17.72" rx=".46" ry="1.37"/><ellipse class="cls-8" cx="82.59" cy="17.57" rx=".46" ry="1.37"/><ellipse class="cls-8" cx="83.84" cy="18.02" rx=".46" ry="1.37"/><ellipse class="cls-8" cx="84.96" cy="18.4" rx=".4" ry="1.36"/><ellipse class="cls-8" cx="29.17" cy="17.72" rx=".55" ry="1.37"/><ellipse class="cls-8" cx="27.7" cy="18.17" rx=".55" ry="1.37"/><ellipse class="cls-8" cx="31.11" cy="17.87" rx=".55" ry="1.37"/><ellipse class="cls-8" cx="26.38" cy="18.55" rx=".47" ry="1.36"/><rect class="cls-2" y="16.51" width="108.61" height="1.36"/><ellipse class="cls-8" cx="61.75" cy="11.89" rx="1.34" ry="1.91"/><ellipse class="cls-8" cx="45.9" cy="12.27" rx="1.34" ry="1.91"/><ellipse class="cls-8" cx="53.7" cy="11.89" rx="8.05" ry="11.49"/><path class="cls-4" d="M46.64,10.72c.52,.11,1.76,.24,6.2-3.91,1.83-1.71,2.16-2.24,2.21-2.93,.11-1.47-1.04-3.15-2.26-3.6-3.45-1.3-8.95,6.62-7.93,9.29,.32,.85,1.26,1.05,1.78,1.16Z"/><path class="cls-4" d="M52.08,5.18c6.38,3.03,7.75,6.01,9.12,5.53,1.47-.52,1.23-4.43-1.17-7.21-.27-.31-3.57-4.02-7.46-3.44-1.95,.29-3.9,1.65-3.76,2.84,.11,.96,1.52,1.45,3.27,2.28Z"/><g><path class="cls-8" d="M40.34,21.07h28.66v10.11c0,7.91-6.42,14.33-14.33,14.33h0c-7.91,0-14.33-6.42-14.33-14.33v-10.11h0Z" transform="translate(109.7 65.98) rotate(179.37)"/><ellipse class="cls-8" cx="33.1" cy="18.09" rx="1.82" ry=".53" transform="translate(-3.1 28.71) rotate(-45)"/><ellipse class="cls-8" cx="26.32" cy="17.19" rx=".53" ry=".91"/><ellipse class="cls-8" cx="27.71" cy="16.99" rx=".53" ry="1.18"/><ellipse class="cls-8" cx="29.08" cy="16.73" rx=".53" ry="1.16"/><ellipse class="cls-8" cx="31.11" cy="16.55" rx=".53" ry=".98"/></g><g><ellipse class="cls-8" cx="79.27" cy="17.95" rx=".48" ry="1.68" transform="translate(6.62 54.38) rotate(-39.39)"/><ellipse class="cls-8" cx="85.01" cy="17.04" rx=".45" ry=".91"/><ellipse class="cls-8" cx="83.84" cy="16.84" rx=".45" ry="1.18"/><ellipse class="cls-8" cx="82.67" cy="16.58" rx=".45" ry="1.16"/><ellipse class="cls-8" cx="80.95" cy="16.4" rx=".45" ry=".98"/></g><path class="cls-6" d="M54.32,48.04c-.24,2.68,4.71,5.65,9.07,6.11,1.7,.18,3.21-.08,6.24-.61,2.9-.5,4.24-.99,8.9-2.33,7.73-2.23,8.85-2.28,9.2-3.18,.77-1.95-3.18-5.12-7.21-6.59-10.36-3.78-25.81,2.06-26.21,6.59Z"/><path class="cls-6" d="M54.64,47.32c.41,2.66-4.31,5.95-8.59,6.7-1.67,.29-3.19,.13-6.23-.19-2.91-.31-4.27-.71-8.98-1.74-7.8-1.71-8.92-1.68-9.33-2.56-.89-1.9,2.82-5.32,6.72-7.05,10.03-4.46,25.72,.35,26.41,4.84Z"/><ellipse class="cls-6" cx="55.6" cy="49.49" rx="12.45" ry="4.33"/><rect class="cls-5" x="59.13" y="21.08" width="2.55" height="10.25"/><rect class="cls-5" x="47.37" y="21.39" width="2.55" height="10.25"/><path class="cls-5" d="M60.77,28.81c-5.59-1.81-10.34-.38-11.7,.05-4.5,1.42-7.55,4.23-8.22,5.8-.77,1.83-.71,3.73-.71,3.73s.06,1.67,.76,3.23c.37,.82,5.14,4.88,14.12,4.44,3.44-.17,11.27-.55,13.61-5.6,1.26-2.72,.3-5.47,.2-5.75-1.37-3.74-5.46-5.06-8.07-5.9Z"/><ellipse class="cls-1" cx="10.02" cy="17.38" rx="2.65" ry="16.57"/><ellipse class="cls-1" cx="99.08" cy="16.8" rx="2.65" ry="16.57"/></g></g></svg>