<?xml version="1.0" encoding="UTF-8"?><svg id="Layer_2" xmlns="http://www.w3.org/2000/svg" width="38.08mm" height="26.7mm" viewBox="0 0 107.93 75.67"><defs><style>.cls-1{fill:#ead2cb;}.cls-2{fill:#e9d2ca;}.cls-3{fill:#c3aba5;}.cls-4{fill:#133243;}.cls-5{fill:#53ada4;}.cls-6{fill:#4d615f;}.cls-7{fill:#e13135;}.cls-8{fill:#e99471;}</style></defs><g id="front_squat"><g><path class="cls-6" d="M24.18,74.14c3.32-.14,2.74-21.86,3.87-26.73,.06-.26,.27-1.07-.24-1.71-.73-.91-2.61-1.06-3.56-.86-4.01,.86-5.64,11.21-4,19.85,.13,.69,1.8,9.54,3.93,9.45Z"/><path class="cls-6" d="M79.69,73.87c-3.52-.83,1.23-22.75,.95-27.94-.02-.28-.08-1.14,.58-1.68,.95-.77,2.99-.54,3.96-.13,4.12,1.71,3.89,12.55,.5,20.98-.27,.67-3.74,9.3-5.99,8.77Z"/><path class="cls-3" d="M80.36,73.88c.76,.04,1.34,0,1.59-.01,2.47-.16,6.47-.42,6.84-1.8,.33-1.23-2.16-3.61-4.92-3.97-4.14-.55-8.05,3.53-7.59,4.77,.3,.81,2.7,.94,4.07,1.01Z"/><path class="cls-3" d="M21.45,75.65c.76,.04,1.34,0,1.59-.01,2.47-.16,6.47-.42,6.84-1.8,.33-1.23-2.16-3.61-4.92-3.97-4.14-.55-8.05,3.53-7.59,4.77,.3,.81,2.7,.94,4.07,1.01Z"/><rect class="cls-7" x="58.77" y="21.55" width="2.59" height="8.33"/><path class="cls-8" d="M51.86,2.42c2.92,2.52,5.85,5.04,8.77,7.57"/><rect class="cls-8" x="35.53" y="22.1" width="5.86" height="18.05" transform="translate(38.65 -18.35) rotate(51.24)"/><path class="cls-8" d="M31.25,21.17h0c1.62,0,2.93,1.31,2.93,2.93v15.42h-5.86v-15.42c0-1.62,1.31-2.93,2.93-2.93Z" transform="translate(67.52 54.46) rotate(169.47)"/><rect class="cls-8" x="67.82" y="20.86" width="5.86" height="18.05" transform="translate(129.11 -20.05) rotate(116.55)"/><path class="cls-8" d="M79.11,19.23h0c1.62,0,2.93,1.31,2.93,2.93v15.42h-5.86v-15.42c0-1.62,1.31-2.93,2.93-2.93Z" transform="translate(148.25 76.2) rotate(-165.08)"/><ellipse class="cls-8" cx="29.42" cy="20.09" rx="3.8" ry="2.33"/><ellipse class="cls-8" cx="81.62" cy="19.64" rx="3.42" ry="1.92"/><ellipse class="cls-8" cx="80.45" cy="17.61" rx=".46" ry="1.36"/><ellipse class="cls-8" cx="82.08" cy="17.46" rx=".46" ry="1.36"/><ellipse class="cls-8" cx="83.32" cy="17.91" rx=".46" ry="1.36"/><ellipse class="cls-8" cx="84.43" cy="18.29" rx=".4" ry="1.35"/><ellipse class="cls-8" cx="28.99" cy="17.61" rx=".54" ry="1.36"/><ellipse class="cls-8" cx="27.52" cy="18.06" rx=".54" ry="1.36"/><ellipse class="cls-8" cx="30.91" cy="17.76" rx=".54" ry="1.36"/><ellipse class="cls-8" cx="26.21" cy="18.43" rx=".47" ry="1.35"/><ellipse class="cls-8" cx="61.37" cy="11.81" rx="1.33" ry="1.9"/><ellipse class="cls-8" cx="45.61" cy="12.19" rx="1.33" ry="1.9"/><ellipse class="cls-8" cx="53.36" cy="11.81" rx="8" ry="11.41"/><path class="cls-4" d="M46.35,10.66c.51,.11,1.75,.24,6.16-3.89,1.82-1.7,2.15-2.22,2.2-2.91,.11-1.46-1.04-3.13-2.25-3.58-3.43-1.29-8.89,6.58-7.88,9.23,.32,.84,1.25,1.04,1.77,1.15Z"/><path class="cls-4" d="M51.75,5.15c6.34,3.01,7.7,5.98,9.07,5.5,1.46-.51,1.23-4.4-1.16-7.16-.26-.31-3.55-4-7.41-3.42-1.94,.29-3.87,1.64-3.74,2.82,.11,.95,1.51,1.44,3.25,2.26Z"/><path class="cls-8" d="M39.21,18.96h29.35v11.6c0,8.1-6.58,14.68-14.68,14.68h0c-8.1,0-14.68-6.58-14.68-14.68v-11.6h0Z" transform="translate(108.11 63.6) rotate(179.37)"/><ellipse class="cls-8" cx="32.89" cy="17.98" rx="1.8" ry=".53" transform="translate(-3.08 28.53) rotate(-45)"/><ellipse class="cls-8" cx="26.15" cy="17.08" rx=".53" ry=".9"/><ellipse class="cls-8" cx="27.53" cy="16.89" rx=".53" ry="1.17"/><ellipse class="cls-8" cx="28.9" cy="16.63" rx=".53" ry="1.15"/><ellipse class="cls-8" cx="30.91" cy="16.45" rx=".53" ry=".97"/><g><ellipse class="cls-8" cx="78.77" cy="17.83" rx=".48" ry="1.67" transform="translate(6.58 54.04) rotate(-39.39)"/><ellipse class="cls-8" cx="84.48" cy="16.93" rx=".45" ry=".9"/><ellipse class="cls-8" cx="83.31" cy="16.74" rx=".45" ry="1.17"/><ellipse class="cls-8" cx="82.16" cy="16.48" rx=".45" ry="1.15"/><ellipse class="cls-8" cx="80.45" cy="16.3" rx=".45" ry=".97"/></g><path class="cls-6" d="M53.98,47.74c-.24,2.66,4.68,5.61,9.01,6.08,1.69,.18,3.19-.08,6.21-.6,2.88-.5,4.21-.98,8.85-2.32,7.68-2.21,8.79-2.26,9.14-3.16,.76-1.94-3.16-5.09-7.16-6.55-10.3-3.76-25.65,2.05-26.05,6.55Z"/><path class="cls-6" d="M54.3,47.02c.41,2.64-4.28,5.91-8.54,6.66-1.66,.29-3.17,.13-6.19-.19-2.89-.31-4.24-.7-8.92-1.73-7.75-1.7-8.86-1.67-9.27-2.54-.88-1.88,2.81-5.29,6.67-7.01,9.97-4.43,25.56,.34,26.25,4.81Z"/><ellipse class="cls-6" cx="55.25" cy="49.19" rx="12.38" ry="4.3"/><rect class="cls-5" x="58.76" y="20.94" width="2.54" height="10.18"/><rect class="cls-5" x="47.08" y="21.25" width="2.54" height="10.18"/><path class="cls-5" d="M60.54,26.7c-5.99-2-11.07-.42-12.53,.06-4.82,1.57-8.09,4.67-8.8,6.41-.83,2.02-.76,4.12-.76,4.12s.06,1.85,.81,3.57c.39,.91,5.5,5.39,15.12,4.9,3.69-.19,12.07-.61,14.58-6.19,1.35-3.01,.33-6.04,.22-6.35-1.47-4.13-5.84-5.59-8.64-6.52Z"/><ellipse class="cls-1" cx="9.87" cy="21.23" rx="2.63" ry="16.47"/><ellipse class="cls-1" cx="98.46" cy="20.65" rx="2.63" ry="16.47"/><rect class="cls-2" y="19.3" width="107.93" height="1.35"/></g></g></svg>