<?xml version="1.0" encoding="UTF-8"?><svg id="Layer_2" xmlns="http://www.w3.org/2000/svg" width="42.14mm" height="28.06mm" viewBox="0 0 119.45 79.53"><defs><style>.cls-1{fill:#555352;}.cls-2{fill:#c3aba5;}.cls-3{fill:#133243;}.cls-4{fill:#53ada4;}.cls-5{fill:#4d615f;}.cls-6{fill:#e99471;}.cls-7{fill:#435553;}</style></defs><g id="leg_press"><g><path class="cls-1" d="M118.44,9.92c-5.52-4.28-36.19,15.74-40.75,43.77-.74,4.52-2.1,12.91,1.31,14.81,6.51,3.63,28.15-17.65,36.95-42.85,2.65-7.58,4.85-13.89,2.49-15.72Z"/><path class="cls-1" d="M50.1,58.12c-.7,.48-11.15,7.75-9.43,13.89,2.55,9.15,30.44,9.71,38.36,3.01,1.5-1.27,2.4-2.87,2.4-2.87,2.48-4.44,1.38-10.47-.92-13.76-5.18-7.44-20.65-6.91-30.4-.26Z"/><polygon class="cls-1" points="0 45.04 0 79.13 32 46.77 32 21.37 0 45.04"/><ellipse class="cls-3" cx="103.99" cy="9.34" rx="2.79" ry="1.02" transform="translate(92.85 113.16) rotate(-89.01)"/><path class="cls-7" d="M67.6,66.73c-1.84,1.37-6.32-1.55-8.69-5.05-.93-1.37-1.44-2.77-2.47-5.57-.99-2.69-1.26-4.04-2.45-8.59-1.98-7.54-2.47-8.52-1.98-9.21,1.07-1.5,5.22,.48,8.17,3.26,7.59,7.17,10.53,22.84,7.42,25.16Z"/><polygon class="cls-6" points="87.84 23.51 83.68 21.96 80.2 29.8 84.36 31.35 87.84 23.51"/><path class="cls-4" d="M83.83,28.79c-2.21-1.76-8.46,2.59-10.91,4.55-7.36,5.92-13.61,17.11-10.31,24.84,1.67,3.93,5.95,7.31,8.89,6.19,2.35-.89,2.99-4.32,4.34-9.28,4.83-17.72,10.41-24.39,8-26.31Z"/><path class="cls-7" d="M19.41,48.09c-.56-3.59,26.4-7.72,32.18-10.01,.31-.12,1.26-.52,2.16-.11,1.29,.58,1.89,2.57,1.85,3.63-.18,4.49-12.61,8.51-23.65,8.64-.88,.01-12.18,.15-12.54-2.16Z"/><path class="cls-5" d="M18.95,50.7c.56,3.18,27.83-.63,34.1-.27,.33,.02,1.38,.1,2.12-.49,1.06-.84,1.03-2.68,.66-3.57-1.56-3.74-14.77-3.77-25.45-.89-.85,.23-11.79,3.18-11.43,5.21Z"/><path class="cls-5" d="M72.08,66.64c-2.12,2.46-8.57,1.86-12.4-.52-1.49-.93-2.46-2.12-4.38-4.5-1.84-2.28-2.48-3.56-4.98-7.69-4.15-6.85-4.99-7.6-4.49-8.6,1.08-2.17,6.92-2.38,11.35-1.08,11.41,3.35,18.49,18.24,14.9,22.4Z"/><path class="cls-2" d="M16.78,51.94c-.21-.76-.3-1.35-.34-1.61-.37-2.53-.96-6.64,.49-7.34,1.3-.62,4.5,1.34,5.52,4.05,1.52,4.06-2.16,8.96-3.64,8.79-.98-.11-1.64-2.51-2.03-3.88Z"/><path class="cls-2" d="M18.98,45.16c-.32-.72-.5-1.29-.58-1.55-.74-2.45-1.94-6.43-.61-7.35,1.19-.82,4.64,.62,6.04,3.14,2.11,3.78-.79,9.21-2.28,9.28-.98,.04-2-2.23-2.58-3.53Z"/><ellipse class="cls-6" cx="92.15" cy="11.92" rx="13.33" ry="8.28" transform="translate(22.61 73.55) rotate(-48.92)"/><path class="cls-6" d="M94.22,.82l-7.07,4.23s-3.53,.08-3.63,2.63,.31,13.79,.31,13.79L94.22,.82Z"/><path class="cls-3" d="M96.32,.15c-4.06,1.51-4.21,14.69-3.95,18.83,.05,.78,.15,1.83,.9,2.17,2.1,.95,8.7-3.91,10.29-9.4,1.93-6.68-4.01-12.8-7.24-11.59Z"/><path class="cls-3" d="M104.35,7.78c1.23-1.27,8.22,1.58,8.49,5.66,.12,1.9-1.32,2.37-1.87,5.26-.82,4.32,1.69,7.08,.89,7.69-.73,.55-3.71-1.05-4.7-3.87-1.02-2.93,1.07-4.42-.15-7.39-.66-1.61-1.61-2-2.36-4.44-.43-1.4-.76-2.44-.3-2.91Z"/><path class="cls-6" d="M57.07,66.25l.1,.08c1.52,1.15,3.59,.95,4.62-.44l22.25-30.14c1.03-1.4,.63-3.46-.89-4.61l-.1-.08c-1.52-1.15-3.59-.95-4.62,.44l-22.25,30.14c-1.03,1.4-.63,3.46,.89,4.61Z"/></g></g></svg>