<?xml version="1.0" encoding="UTF-8"?><svg id="Layer_2" xmlns="http://www.w3.org/2000/svg" width="23.4mm" height="46.63mm" viewBox="0 0 66.34 132.19"><defs><style>.cls-1{fill:#e99370;}.cls-2{fill:#c3aba5;}.cls-3{fill:#133243;}.cls-4{fill:#53ada4;}.cls-5{fill:#4d615f;}.cls-6{fill:#e99471;}.cls-7{fill:#435553;}.cls-8{fill:#ead3cc;}</style></defs><g id="facepull"><g><ellipse class="cls-6" cx="16.34" cy="14.57" rx="8.57" ry="12.22"/><rect class="cls-1" x="14.37" y="25.94" width="4.81" height="6.28"/><path class="cls-7" d="M22.67,62.27c-2.82-.1-5.62,5.34-5.83,10.01-.08,1.82,.29,3.42,1.02,6.63,.71,3.07,1.3,4.47,3,9.36,2.82,8.12,2.94,9.31,3.9,9.64,2.09,.71,5.16-3.68,6.45-8.06,3.31-11.27-3.77-27.41-8.54-27.59Z"/><rect class="cls-6" x="29.59" y="16.61" width="7.03" height="13.97" rx="3.52" ry="3.52" transform="translate(-7.38 27.29) rotate(-40.69)"/><rect class="cls-6" x="24.97" y="19.72" width="7.03" height="24.99" rx="3.52" ry="3.52" transform="translate(31.12 -10.7) rotate(45)"/><path class="cls-4" d="M18.55,30.6c8.62,2.45,9.89,32.62,1.69,36.72-3.21,1.61-6.87,1.08-6.87,1.08s-2.77-.4-5.1-2.06c-6.16-4.37-8.09-20.89,.59-30.41,1.58-1.74,5.85-6.42,9.69-5.33Z"/><rect class="cls-6" x="6.07" y="26.56" width="7.03" height="21.39" rx="3.52" ry="3.52" transform="translate(-21.47 14.55) rotate(-39.39)"/><path class="cls-5" d="M11.61,63.71c-3.28-.44-7.4,4.75-8.4,9.46-.39,1.84-.21,3.5,.15,6.84,.34,3.19,.81,4.68,2.02,9.84,2.01,8.56,1.96,9.78,3.03,10.23,2.33,.97,6.61-3.12,8.81-7.4,5.65-11.02-.07-28.22-5.61-28.97Z"/><path class="cls-7" d="M22.47,127.93c3.99,.28,6.21-26.87,8.23-32.8,.11-.32,.46-1.3-.06-2.16-.75-1.24-2.98-1.68-4.14-1.56-4.91,.53-8.25,13.21-7.46,24.2,.06,.88,.88,12.14,3.43,12.32Z"/><path class="cls-5" d="M9.48,132.19c-3.53-.29-.93-30.21-1.7-36.96-.04-.36-.19-1.48,.41-2.34,.86-1.24,2.89-1.39,3.88-1.08,4.2,1.31,5,15.62,2.47,27.48-.2,.94-2.8,13.09-5.06,12.9Z"/><path class="cls-2" d="M8.88,131.93c.86,.08,1.52,.08,1.81,.07,2.81-.05,7.38-.14,7.87-1.68,.44-1.38-2.26-4.21-5.38-4.77-4.68-.84-9.33,3.59-8.88,5.02,.3,.94,3.02,1.21,4.58,1.36Z"/><path class="cls-2" d="M25.19,129.99c.87,.04,1.52,0,1.81-.01,2.81-.18,7.36-.48,7.79-2.05,.38-1.4-2.46-4.1-5.6-4.52-4.71-.62-9.16,4.02-8.64,5.43,.34,.93,3.07,1.07,4.63,1.15Z"/><path class="cls-3" d="M23.1,2.49c.28,.23,2.66,2.22,2.16,3.53-.4,1.05-2.42,1.04-6.87,1.18-9.3,.29-11.26,.71-11.77-.39-.63-1.36,1.56-3.75,3.14-4.91,4.06-2.98,9.99-2.21,13.34,.59Z"/><path class="cls-3" d="M8.98,4.84c-2.49,.14-3.71,4.19-3.92,4.91-.64,2.14-.32,3.91,0,5.69,.31,1.72,.71,3.91,1.77,4.12,.2,.04,.94,.11,2.94-2.75,2.51-3.58,3.94-5.64,3.34-8.04-.49-1.93-2.27-4.03-4.12-3.92Z"/><ellipse class="cls-6" cx="9.59" cy="15.5" rx="1.86" ry="2.72"/><rect class="cls-8" x="43.6" y="-8.42" width="1.11" height="45.97" transform="translate(42.8 61.04) rotate(-106.58)"/><rect class="cls-6" x="5.44" y="14.92" width="7.03" height="21.39" rx="3.52" ry="3.52" transform="translate(22.54 2.12) rotate(49.31)"/><rect class="cls-8" x="9.72" y="20.62" width="24.51" height="4.07" transform="translate(-1.87 1.98) rotate(-4.95)"/></g></g></svg>