<?xml version="1.0" encoding="UTF-8"?><svg id="Layer_2" xmlns="http://www.w3.org/2000/svg" width="30.67mm" height="46.82mm" viewBox="0 0 86.94 132.72"><defs><style>.cls-1{fill:#e99370;}.cls-2{fill:#c3aba5;}.cls-3{fill:#133243;}.cls-4{fill:#53ada4;}.cls-5{fill:#4d615f;}.cls-6{fill:#e99471;}.cls-7{fill:#435553;}.cls-8{fill:#ead3cc;}</style></defs><g id="deadlift"><g><ellipse class="cls-6" cx="39.29" cy="14.62" rx="8.61" ry="12.27"/><rect class="cls-1" x="37.31" y="26.04" width="4.83" height="6.3"/><path class="cls-7" d="M45.64,62.52c-2.83-.1-5.64,5.36-5.86,10.05-.09,1.83,.29,3.44,1.03,6.65,.71,3.08,1.31,4.48,3.01,9.4,2.83,8.15,2.95,9.35,3.92,9.68,2.1,.71,5.18-3.7,6.47-8.09,3.32-11.31-3.79-27.52-8.58-27.7Z"/><rect class="cls-6" x="44.36" y="33.79" width="7.06" height="21.48" rx="3.53" ry="3.53" transform="translate(-4.76 5.75) rotate(-6.54)"/><rect class="cls-6" x="47.12" y="50" width="7.06" height="18.65" rx="3.53" ry="3.53" transform="translate(112.35 107.07) rotate(168.22)"/><path class="cls-4" d="M41.5,30.72c8.66,2.46,9.93,32.75,1.7,36.87-3.22,1.61-6.89,1.08-6.89,1.08s-2.78-.4-5.12-2.07c-6.18-4.39-8.12-20.98,.59-30.53,1.59-1.74,5.87-6.45,9.73-5.35Z"/><rect class="cls-6" x="28.41" y="36.77" width="7.06" height="21.48" rx="3.53" ry="3.53" transform="translate(-5.2 3.95) rotate(-6.54)"/><path class="cls-5" d="M34.53,63.97c-3.29-.44-7.43,4.77-8.43,9.5-.39,1.84-.21,3.52,.15,6.86,.34,3.2,.82,4.7,2.03,9.88,2.01,8.59,1.96,9.82,3.04,10.27,2.34,.97,6.64-3.13,8.84-7.43,5.67-11.07-.07-28.34-5.64-29.08Z"/><path class="cls-7" d="M45.44,128.45c4,.28,6.24-26.98,8.26-32.93,.11-.32,.46-1.3-.06-2.17-.75-1.24-2.99-1.69-4.16-1.56-4.93,.53-8.29,13.26-7.49,24.3,.06,.88,.88,12.18,3.45,12.37Z"/><path class="cls-5" d="M32.39,132.72c-3.55-.29-.94-30.33-1.71-37.11-.04-.36-.19-1.49,.42-2.35,.87-1.24,2.9-1.39,3.89-1.08,4.22,1.32,5.02,15.69,2.48,27.59-.2,.95-2.81,13.14-5.08,12.95Z"/><path class="cls-2" d="M31.79,132.45c.87,.09,1.53,.08,1.82,.07,2.82-.05,7.41-.14,7.91-1.69,.45-1.39-2.27-4.23-5.41-4.79-4.69-.84-9.37,3.61-8.91,5.04,.3,.95,3.03,1.21,4.59,1.37Z"/><path class="cls-2" d="M48.16,130.51c.87,.04,1.53,0,1.82-.01,2.82-.18,7.39-.48,7.82-2.05,.38-1.4-2.47-4.12-5.62-4.54-4.73-.62-9.19,4.04-8.67,5.45,.34,.93,3.08,1.07,4.65,1.15Z"/><path class="cls-3" d="M46.07,2.5c.28,.24,2.67,2.23,2.17,3.55-.4,1.06-2.43,1.04-6.89,1.18-9.34,.3-11.31,.71-11.82-.39-.63-1.37,1.57-3.76,3.15-4.92,4.07-2.99,10.03-2.22,13.4,.59Z"/><path class="cls-3" d="M31.89,4.86c-2.5,.14-3.72,4.2-3.94,4.92-.65,2.14-.32,3.92,0,5.71,.31,1.73,.71,3.93,1.77,4.14,.2,.04,.94,.11,2.95-2.76,2.52-3.6,3.96-5.66,3.35-8.08-.49-1.94-2.28-4.04-4.14-3.94Z"/><ellipse class="cls-6" cx="32.5" cy="15.56" rx="1.87" ry="2.73"/><rect class="cls-6" x="31.17" y="51.78" width="7.06" height="21.48" rx="3.53" ry="3.53" transform="translate(85.98 112.35) rotate(163.21)"/><rect class="cls-8" x="-1.74" y="67.83" width="90.42" height="1.31" transform="translate(-17.93 15.48) rotate(-16.79)"/><ellipse class="cls-8" cx="12.3" cy="78.12" rx="9.99" ry="18.86"/><ellipse class="cls-8" cx="75.12" cy="58.93" rx="9.23" ry="18.41"/></g></g></svg>