<?xml version="1.0" encoding="UTF-8"?><svg id="Layer_2" xmlns="http://www.w3.org/2000/svg" width="33.06mm" height="52.66mm" viewBox="0 0 93.72 149.26"><defs><style>.cls-1{fill:#e99370;}.cls-2{fill:#c3aba5;}.cls-3{fill:#133243;}.cls-4{fill:#53ada4;}.cls-5{fill:#4d615f;}.cls-6{fill:#e99471;}.cls-7{fill:#435553;}.cls-8{fill:#ead3cd;}</style></defs><g id="pull-up"><g><rect class="cls-8" x="9.62" y="4.29" width="2.14" height="144.98"/><rect class="cls-8" x="82.31" y="2.84" width="2.14" height="144.98"/><ellipse class="cls-6" cx="47.87" cy="11.37" rx="7.85" ry="11.2"/><rect class="cls-1" x="45.99" y="20.56" width="4.4" height="5.75"/><path class="cls-7" d="M53.13,53.73c-2.58-.1-5.14,4.89-5.34,9.17-.08,1.67,.26,3.14,.94,6.07,.65,2.81,1.19,4.09,2.75,8.58,2.58,7.43,2.69,8.53,3.57,8.83,1.92,.65,4.73-3.37,5.91-7.38,3.03-10.32-3.46-25.1-7.82-25.26Z"/><rect class="cls-6" x="58.41" y="14.87" width="6.44" height="22.89" rx="3.22" ry="3.22"/><rect class="cls-6" x="34.65" y="21.78" width="6.44" height="19.59" rx="3.22" ry="3.22" transform="translate(29.17 80.11) rotate(-119.66)"/><rect class="cls-6" x="53.34" y="21.78" width="6.44" height="19.59" rx="3.22" ry="3.22" transform="translate(112.18 -1.62) rotate(120)"/><path class="cls-4" d="M49.07,24.35c6.76,2.11,7.3,29.66,.78,33.54-2.55,1.52-5.43,1.09-5.43,1.09s-2.17-.32-3.99-1.8c-4.79-3.9-6.06-18.98,.92-27.81,1.27-1.61,4.71-5.96,7.72-5.02Z"/><path class="cls-5" d="M54.39,115.94c-3.23-.27-.85-27.66-1.56-33.85-.04-.33-.17-1.36,.38-2.15,.79-1.13,2.64-1.27,3.55-.99,3.85,1.2,4.58,14.31,2.26,25.17-.19,.87-2.56,11.99-4.63,11.82Z"/><path class="cls-2" d="M34.66,119.97c.79,.08,1.39,.07,1.66,.07,2.58-.05,6.76-.13,7.21-1.54,.41-1.26-2.07-3.86-4.93-4.37-4.28-.77-8.55,3.29-8.13,4.6,.27,.86,2.76,1.11,4.19,1.25Z"/><path class="cls-2" d="M55.9,118.29c.79,.04,1.4,0,1.66-.01,2.57-.17,6.74-.44,7.13-1.87,.35-1.28-2.25-3.76-5.13-4.14-4.31-.57-8.38,3.68-7.91,4.97,.31,.85,2.81,.98,4.24,1.05Z"/><path class="cls-3" d="M55.8,5.65c.14,.3,1.32,2.84,.41,3.75-.73,.73-2.37-.04-6.04-1.58-7.69-3.22-9.45-3.6-9.44-4.71,0-1.37,2.7-2.54,4.42-2.92,4.44-.97,8.98,1.88,10.64,5.46Z"/><path class="cls-3" d="M41.79,1.78c-1.65,.1-2.46,3.15-2.6,3.69-.43,1.61-.21,2.94,0,4.28,.21,1.3,.47,2.94,1.17,3.1,.13,.03,.62,.09,1.95-2.07,1.66-2.69,2.62-4.24,2.21-6.05-.32-1.45-1.51-3.03-2.73-2.95Z"/><ellipse class="cls-6" cx="38.86" cy="11.37" rx="1.7" ry="2.49"/><path class="cls-7" d="M39.3,53.73c2.47-.45,5.57,4.14,6.31,8.35,.29,1.64,.15,3.14-.12,6.14-.26,2.87-.61,4.21-1.53,8.87-1.51,7.71-1.48,8.81-2.29,9.23-1.75,.9-4.98-2.69-6.62-6.5-4.24-9.8,.07-25.34,4.24-26.1Z"/><path class="cls-5" d="M32.93,118.3c3.13,.51,7.37-26.66,9.5-32.5,.11-.31,.48-1.28,.15-2.17-.48-1.29-2.2-1.86-3.13-1.8-3.93,.25-7.74,12.81-8.11,23.9-.03,.88-.41,12.25,1.59,12.57Z"/><path class="cls-2" d="M34.74,120.06c.79,.04,1.4,0,1.66-.01,2.57-.17,6.74-.44,7.13-1.87,.35-1.28-2.25-3.76-5.13-4.14-4.31-.57-8.38,3.68-7.91,4.97,.31,.85,2.81,.98,4.24,1.05Z"/><rect class="cls-8" y="13.65" width="93.72" height="1.9"/><rect class="cls-6" x="29.05" y="14.87" width="6.44" height="22.89" rx="3.22" ry="3.22"/></g></g></svg>