<?xml version="1.0" encoding="UTF-8"?><svg id="Layer_2" xmlns="http://www.w3.org/2000/svg" width="31.62mm" height="39.03mm" viewBox="0 0 89.63 110.63"><defs><style>.cls-1{fill:#e99370;}.cls-2{fill:#c3aba5;}.cls-3{fill:#133243;}.cls-4{fill:#53ada4;}.cls-5{fill:#4d615f;}.cls-6{fill:#e99471;}.cls-7{fill:#435553;}.cls-8{fill:#ead3cc;}</style></defs><g id="Bent-over_row"><g><ellipse class="cls-6" cx="56.37" cy="14.21" rx="12.39" ry="8.69" transform="translate(10.27 49.64) rotate(-51.69)"/><rect class="cls-1" x="45.16" y="22.84" width="4.87" height="6.36" transform="translate(26.38 -23.9) rotate(38.31)"/><path class="cls-7" d="M27.86,34.89c-2.86-.11-5.69,5.42-5.91,10.15-.09,1.85,.29,3.47,1.04,6.72,.72,3.11,1.32,4.53,3.04,9.49,2.85,8.22,2.98,9.44,3.95,9.77,2.12,.72,5.23-3.73,6.54-8.16,3.36-11.42-3.83-27.78-8.66-27.96Z"/><rect class="cls-6" x="41.43" y="34.51" width="7.13" height="47.46" rx="3.56" ry="3.56" transform="translate(100.94 106.07) rotate(168.22)"/><path class="cls-4" d="M47.28,29.49c1.85,6.81-23.36,23.87-30.62,20.87-2.84-1.18-4.07-3.79-4.07-3.79s-.93-1.98-.58-4.36c.92-6.27,14.16-16.41,26.27-16.01,2.21,.07,8.17,.27,8.99,3.29Z"/><path class="cls-5" d="M16.65,36.35c-3.32-.45-7.5,4.81-8.51,9.59-.39,1.86-.21,3.55,.15,6.93,.35,3.23,.82,4.74,2.05,9.98,2.03,8.67,1.98,9.91,3.07,10.37,2.36,.98,6.7-3.16,8.93-7.5,5.73-11.17-.07-28.6-5.69-29.36Z"/><path class="cls-7" d="M27.65,101.44c4.04,.28,6.3-27.24,8.34-33.24,.11-.32,.47-1.32-.06-2.19-.76-1.25-3.02-1.7-4.2-1.58-4.98,.54-8.37,13.39-7.56,24.53,.06,.89,.89,12.3,3.48,12.48Z"/><path class="cls-5" d="M14.49,105.75c-3.58-.29-.95-30.61-1.73-37.46-.04-.36-.19-1.5,.42-2.38,.87-1.25,2.93-1.4,3.93-1.09,4.26,1.33,5.07,15.83,2.5,27.85-.2,.96-2.84,13.27-5.13,13.08Z"/><path class="cls-2" d="M13.88,105.49c.87,.09,1.54,.08,1.84,.07,2.85-.05,7.48-.14,7.98-1.71,.45-1.4-2.29-4.27-5.46-4.84-4.74-.85-9.46,3.64-9,5.09,.3,.95,3.06,1.23,4.64,1.38Z"/><path class="cls-2" d="M30.41,103.53c.88,.05,1.55,0,1.84-.01,2.85-.19,7.46-.49,7.89-2.07,.38-1.42-2.49-4.16-5.68-4.58-4.77-.63-9.28,4.07-8.75,5.5,.35,.94,3.11,1.08,4.7,1.16Z"/><path class="cls-3" d="M69.33,8.86c.08,.36,.72,3.44-.5,4.16-.98,.59-2.58-.7-6.2-3.38-7.59-5.61-9.4-6.51-9.12-7.71C53.87,.46,57.1-.06,59.09,0c5.1,.18,9.33,4.52,10.24,8.85Z"/><path class="cls-3" d="M56.62,1.85c-2.07-1.46-5.58,1-6.2,1.44-1.85,1.29-2.71,2.91-3.57,4.53-.83,1.57-1.89,3.55-1.18,4.39,.13,.15,.68,.68,4.07-.34,4.24-1.27,6.68-2,7.71-4.3,.82-1.84,.72-4.63-.81-5.71Z"/><ellipse class="cls-6" cx="50.41" cy="10.71" rx="2.75" ry="1.88" transform="translate(10.76 43.63) rotate(-51.69)"/><rect class="cls-8" x="-.83" y="78.28" width="91.28" height="1.33" transform="translate(-20.42 15.82) rotate(-16.36)"/><ellipse class="cls-8" cx="14.83" cy="91.59" rx="14.83" ry="19.04"/><ellipse class="cls-8" cx="78.83" cy="70.38" rx="10.81" ry="16.04"/><rect class="cls-6" x="33.1" y="33.97" width="7.13" height="49.43" rx="3.56" ry="3.56" transform="translate(84.53 108.65) rotate(168.22)"/></g></g></svg>