<?xml version="1.0" encoding="UTF-8"?><svg id="Layer_2" xmlns="http://www.w3.org/2000/svg" width="38.51mm" height="44.87mm" viewBox="0 0 109.16 127.18"><defs><style>.cls-1{fill:#e99370;}.cls-2{fill:#c3aba5;}.cls-3{fill:#133243;}.cls-4{fill:#53ada4;}.cls-5{fill:#4d615f;}.cls-6{fill:#e99471;}.cls-7{fill:#435553;}.cls-8{fill:#ead3cd;}</style></defs><g id="Inverted_row"><g><rect class="cls-8" y=".15" width="101.76" height="2.07"/><ellipse class="cls-6" cx="50.07" cy="25.72" rx="8.53" ry="12.16" transform="translate(-5.23 15.22) rotate(-16.44)"/><rect class="cls-1" x="48.64" y="31.61" width="4.78" height="7.73"/><rect class="cls-6" x="31.31" y="1.18" width="6.99" height="28.98" rx="3.5" ry="3.5" transform="translate(-.99 2.43) rotate(-3.94)"/><rect class="cls-6" x="58.54" y="22.3" width="6.99" height="24.85" rx="3.5" ry="3.5" transform="translate(17.45 -20.65) rotate(21.92)"/><path class="cls-4" d="M45.09,37.29c8.06-3.8,28.74,17.96,25.29,26.39-1.35,3.3-4.44,5.3-4.44,5.3s-2.33,1.51-5.17,1.8c-7.47,.75-19.72-10.36-19.45-23.16,.05-2.34,.18-8.64,3.77-10.33Z"/><path class="cls-7" d="M68.79,60.44c-2.12,.7-1.82,6.32,.06,10.53,.73,1.64,1.7,2.96,3.64,5.59,1.85,2.52,2.9,3.59,6.28,7.46,5.6,6.4,6.21,7.43,7.06,7.44,1.85,.04,2.2-4.72,1.25-8.97-2.46-10.93-14.7-23.24-18.29-22.05Z"/><rect class="cls-6" x="37.49" y="23.39" width="6.99" height="21.27" rx="3.5" ry="3.5" transform="translate(-12.27 34.95) rotate(-40.69)"/><path class="cls-5" d="M105.28,120.86c-3.12,1.64-16.89-24.86-21.13-30.12-.23-.28-.95-1.15-.9-2.19,.07-1.5,1.69-2.7,2.68-2.97,4.23-1.14,12.53,10.45,16.72,21.75,.33,.9,4.63,12.48,2.63,13.53Z"/><path class="cls-2" d="M102.47,108.94c-.02,1.22,.03,2.14,.05,2.54,.25,3.91,.65,10.26,2.23,10.68,1.41,.38,4.04-3.9,4.38-8.35,.51-6.67-4.23-12.38-5.62-11.49-.92,.58-.99,4.42-1.04,6.62Z"/><path class="cls-3" d="M56.58,17.32c.24,.27,2.25,2.55,1.58,3.77-.54,.98-2.47,.69-6.78,.21-9-.99-10.94-.85-11.28-2-.41-1.43,2.03-3.47,3.71-4.4,4.33-2.37,9.93-.8,12.76,2.41Z"/><path class="cls-3" d="M40.8,17.6c-1.69,.61-1.6,4.04-1.58,4.64,.05,1.8,.68,3.13,1.32,4.46,.61,1.29,1.39,2.92,2.17,2.87,.14,0,.68-.1,1.4-2.75,.91-3.32,1.42-5.22,.45-6.98-.78-1.41-2.5-2.69-3.76-2.23Z"/><ellipse class="cls-6" cx="40.7" cy="28.49" rx="1.85" ry="2.7" transform="translate(-6.4 12.68) rotate(-16.44)"/><rect class="cls-6" x="65.43" y="-.51" width="6.99" height="29.83" rx="3.5" ry="3.5" transform="translate(7.38 -19.81) rotate(17.27)"/><path class="cls-7" d="M57.71,68.39c1.58-2.22,7.47-1,11.24,1.71,1.47,1.06,2.5,2.33,4.56,4.86,1.97,2.43,2.71,3.74,5.53,8.06,4.67,7.15,5.53,7.98,5.22,8.91-.68,2.03-5.91,1.67-10.07-.04-10.73-4.41-19.14-19.76-16.47-23.51Z"/><path class="cls-5" d="M100.48,123.57c2.89-1.86-13.45-26.86-15.98-33.12-.13-.33-.54-1.38-1.46-1.86-1.32-.69-3.13,.1-3.83,.83-2.99,3.06,3.08,15.95,10.85,25.17,.62,.73,8.57,10.18,10.43,8.98Z"/><path class="cls-2" d="M96.34,113.94c-.02,1.22,.03,2.14,.05,2.54,.25,3.91,.65,10.26,2.23,10.68,1.41,.38,4.04-3.9,4.38-8.35,.51-6.67-4.23-12.38-5.62-11.49-.92,.58-.99,4.42-1.04,6.62Z"/></g></g></svg>