<?xml version="1.0" encoding="UTF-8"?><svg id="Layer_1" xmlns="http://www.w3.org/2000/svg" width="300" height="300" viewBox="0 0 300 300"><defs><style>.cls-1{fill:none;stroke:#fff;stroke-miterlimit:10;stroke-width:3px;}</style></defs><path class="cls-1" d="M42.19,124.29h215.62c3.06,0,5.55,2.49,5.55,5.55v19.45H36.64v-19.45c0-3.06,2.49-5.55,5.55-5.55Z"/><rect class="cls-1" x="142.71" y="53.04" width="14.58" height="71.25"/><g><line class="cls-1" x1="58.51" y1="162.94" x2="58.51" y2="177.92"/><line class="cls-1" x1="94.71" y1="170.43" x2="94.36" y2="205.72"/><line class="cls-1" x1="144.39" y1="158.88" x2="144.39" y2="200.75"/><line class="cls-1" x1="117.07" y1="195.07" x2="117.07" y2="225.95"/><line class="cls-1" x1="170.3" y1="185.49" x2="170.3" y2="217.79"/><line class="cls-1" x1="192.66" y1="162.94" x2="192.66" y2="195.07"/><line class="cls-1" x1="239.85" y1="182.65" x2="239.85" y2="205.01"/><line class="cls-1" x1="213.24" y1="208.2" x2="213.24" y2="222.75"/><line class="cls-1" x1="70.94" y1="188.07" x2="70.94" y2="212.11"/></g></svg>