<?xml version="1.0" encoding="UTF-8"?><svg id="Layer_1" xmlns="http://www.w3.org/2000/svg" width="300" height="300" viewBox="0 0 300 300"><defs><style>.cls-1{fill:#2f3635;}</style></defs><path id="Icon_ionic-logo-facebook" class="cls-1" d="M258.6,28.25H41.4c-7.44,0-13.47,6.04-13.48,13.48v217.21c0,7.44,6.04,13.47,13.48,13.48h108.6v-96.65h-29.2v-35.59h29.2v-26.34c0-31.54,21.87-48.71,50.04-48.71,13.48,0,27.98,1.02,31.35,1.46v32.94h-22.44c-15.32,0-18.25,7.25-18.25,17.93v22.71h36.5l-4.77,35.61h-31.73v96.64h67.91c7.44,0,13.47-6.04,13.48-13.48V41.73c0-7.44-6.04-13.47-13.48-13.48Z"/></svg>