<svg id="Facebook_personkort" data-name="Facebook personkort" xmlns="http://www.w3.org/2000/svg" width="26.373" height="26.373" viewBox="0 0 26.373 26.373">
  <path id="Icon_ionic-logo-facebook" data-name="Icon ionic-logo-facebook" d="M29.417,4.5H5.956A1.457,1.457,0,0,0,4.5,5.956V29.417a1.457,1.457,0,0,0,1.456,1.456h11.73V20.433H14.534V16.587h3.152V13.744c0-3.406,2.363-5.261,5.4-5.261,1.456,0,3.022.11,3.386.158V12.2H24.053c-1.655,0-1.971.783-1.971,1.937v2.452h3.942l-.515,3.846H22.082V30.873h7.335a1.457,1.457,0,0,0,1.456-1.456V5.956A1.457,1.457,0,0,0,29.417,4.5Z" transform="translate(-4.5 -4.5)" fill="#fff"/>
</svg>
