<?xml version="1.0" encoding="UTF-8"?><svg id="Layer_1" xmlns="http://www.w3.org/2000/svg" width="300" height="300" viewBox="0 0 300 300"><defs><style>.cls-1{fill:none;stroke:#fff;stroke-miterlimit:10;stroke-width:4px;}</style></defs><path class="cls-1" d="M86.7,87.92h12.88v124.17h-12.88c-3.09,0-5.59-2.51-5.59-5.59V93.51c0-3.09,2.51-5.59,5.59-5.59Z"/><path class="cls-1" d="M65.87,111.25h14.06v77.5h-14.06c-3.09,0-5.59-2.51-5.59-5.59V116.85c0-3.09,2.51-5.59,5.59-5.59Z"/><path class="cls-1" d="M50.58,129.5h8.52v41h-8.52c-3.09,0-5.59-2.51-5.59-5.59v-29.81c0-3.09,2.51-5.59,5.59-5.59Z"/><g><path class="cls-1" d="M206.01,87.92h12.88v124.17h-12.88c-3.09,0-5.59-2.51-5.59-5.59V93.51c0-3.09,2.51-5.59,5.59-5.59Z" transform="translate(419.31 300) rotate(-180)"/><path class="cls-1" d="M225.66,111.25h14.06v77.5h-14.06c-3.09,0-5.59-2.51-5.59-5.59V116.85c0-3.09,2.51-5.59,5.59-5.59Z" transform="translate(459.79 300) rotate(-180)"/><path class="cls-1" d="M246.49,129.5h8.52v41h-8.52c-3.09,0-5.59-2.51-5.59-5.59v-29.81c0-3.09,2.51-5.59,5.59-5.59Z" transform="translate(495.91 300) rotate(-180)"/></g><rect class="cls-1" x="99.58" y="142.08" width="100.83" height="15.83"/></svg>