<?xml version="1.0" encoding="UTF-8"?><svg id="Layer_1" xmlns="http://www.w3.org/2000/svg" width="300" height="300" viewBox="0 0 300 300"><defs><style>.cls-1{fill:#fff;}</style></defs><path id="Icon_awesome-arrow-circle-down" class="cls-1" d="M275.83,150.34c0,69.5-56.34,125.83-125.83,125.83S24.17,219.83,24.17,150.34,80.5,24.5,150,24.5c0,0,0,0,0,0,69.48-.01,125.82,56.31,125.83,125.79v.04Zm-72.86-14.66l-36.75,38.31V81.34c.02-6.71-5.41-12.16-12.12-12.18-.02,0-.04,0-.06,0h-8.11c-6.71-.02-12.16,5.41-12.18,12.12,0,.02,0,.04,0,.06v92.64l-36.73-38.31c-4.66-4.86-12.38-5.02-17.24-.36-.06,.05-.11,.11-.16,.16l-5.52,5.58c-4.75,4.72-4.77,12.4-.05,17.15,.02,.02,.03,.03,.05,.05l67.27,67.33c4.72,4.75,12.4,4.77,17.15,.05,.02-.02,.03-.03,.05-.05l67.33-67.33c4.75-4.72,4.77-12.4,.05-17.15-.02-.02-.03-.03-.05-.05l-5.53-5.58c-4.77-4.75-12.49-4.73-17.24,.04-.05,.05-.11,.11-.16,.16h0Z"/></svg>