<svg id="Instagram_personkort" data-name="Instagram personkort" xmlns="http://www.w3.org/2000/svg" width="26.378" height="26.373" viewBox="0 0 26.378 26.373">
  <path id="Icon_awesome-instagram" data-name="Icon awesome-instagram" d="M13.187,8.662a6.762,6.762,0,1,0,6.762,6.762A6.751,6.751,0,0,0,13.187,8.662Zm0,11.158a4.4,4.4,0,1,1,4.4-4.4A4.4,4.4,0,0,1,13.187,19.82ZM21.8,8.386a1.577,1.577,0,1,1-1.577-1.577A1.573,1.573,0,0,1,21.8,8.386Zm4.478,1.6a7.8,7.8,0,0,0-2.13-5.526,7.856,7.856,0,0,0-5.526-2.13c-2.177-.124-8.7-.124-10.881,0A7.845,7.845,0,0,0,2.218,4.455,7.83,7.83,0,0,0,.087,9.981c-.124,2.177-.124,8.7,0,10.881a7.8,7.8,0,0,0,2.13,5.526,7.866,7.866,0,0,0,5.526,2.13c2.177.124,8.7.124,10.881,0a7.8,7.8,0,0,0,5.526-2.13,7.856,7.856,0,0,0,2.13-5.526c.124-2.177.124-8.7,0-10.875ZM23.468,23.2A4.451,4.451,0,0,1,20.961,25.7c-1.736.689-5.855.53-7.774.53s-6.044.153-7.774-.53A4.451,4.451,0,0,1,2.906,23.2c-.689-1.736-.53-5.855-.53-7.774s-.153-6.044.53-7.774A4.451,4.451,0,0,1,5.413,5.143c1.736-.689,5.855-.53,7.774-.53s6.044-.153,7.774.53A4.45,4.45,0,0,1,23.468,7.65c.689,1.736.53,5.855.53,7.774S24.156,21.468,23.468,23.2Z" transform="translate(0.005 -2.238)" fill="#fff"/>
</svg>
