<?xml version="1.0" encoding="UTF-8"?><svg id="Layer_1" xmlns="http://www.w3.org/2000/svg" width="300" height="300" viewBox="0 0 300 300"><defs><style>.cls-1{fill:#2f3635;}</style></defs><path id="Icon_awesome-instagram" class="cls-1" d="M150.03,80.24c-38.7,0-70.08,31.38-70.08,70.08s31.38,70.08,70.08,70.08,70.07-31.37,70.08-70.06c.07-38.64-31.2-70.02-69.85-70.09-.08,0-.15,0-.23,0Zm0,115.64c-25.16,0-45.56-20.4-45.56-45.56,0-25.16,20.4-45.56,45.56-45.56,25.16,0,45.56,20.4,45.56,45.56h0c-.04,25.16-20.42,45.53-45.56,45.57h0Zm89.29-118.52c0,9.03-7.32,16.35-16.35,16.35-9.03,0-16.35-7.32-16.35-16.35s7.32-16.35,16.35-16.35h0c9.01-.02,16.33,7.27,16.35,16.27,0,.03,0,.06,0,.09h0Zm46.41,16.58c-1.04-21.89-6.04-41.29-22.08-57.27-16.04-15.98-35.37-20.97-57.26-22.07-22.57-1.28-90.21-1.28-112.77,0-21.84,1.04-41.24,6.04-57.27,22.03-16.03,15.99-20.98,35.37-22.08,57.26-1.28,22.57-1.28,90.21,0,112.77,1.04,21.89,6.04,41.29,22.08,57.27,16.04,15.98,35.38,20.98,57.27,22.08,22.57,1.28,90.21,1.28,112.77,0,21.89-1.04,41.29-6.04,57.27-22.08,15.98-16.04,20.98-35.38,22.08-57.27,1.28-22.57,1.28-90.14,0-112.71v-.02Zm-29.15,136.94c-4.69,11.88-14.1,21.28-25.99,25.97-17.99,7.14-60.68,5.49-80.57,5.49s-62.66,1.58-80.57-5.49c-11.88-4.68-21.29-14.09-25.99-25.97-7.13-17.99-5.48-60.68-5.48-80.57s-1.58-62.66,5.49-80.57c4.69-11.89,14.1-21.3,25.98-25.99,17.99-7.13,60.68-5.49,80.57-5.49s62.63-1.58,80.57,5.49c11.88,4.69,21.29,14.1,25.98,25.98,7.14,17.99,5.49,60.68,5.49,80.57s1.65,62.64-5.48,80.57Z"/></svg>