<?xml version="1.0" encoding="UTF-8"?><svg id="Layer_2" xmlns="http://www.w3.org/2000/svg" width="608.25" height="138.38" viewBox="0 0 608.25 138.38"><defs><style>.cls-1{fill:#fff;}.cls-2{fill:#575756;}</style></defs><g id="Layer_1-2"><g><path class="cls-2" d="M97.45,16.83c.4-.2,.7-.7,1.1-.8,.1,0,.2,0,.3-.1,.1-.1,.2-.1,.3-.2,.2-.2,.4-.3,.7-.4l1.8-.9h.5c.3-.1,.6-.2,.9-.2l.8-.1h1.3c.5,0,.9,.2,1.4,.4"/><g><path class="cls-1" d="M107.65,3.83c-.6-.5-1.1-.3-1.7-.1-2.6,.9-5.1,1.9-7.5,3.1-2.6,1.3-5,2.7-7.5,4.1s-5,3-7.4,4.5-4.8,3-7.3,4.4-4.7,2.6-7.1,3.7c-.5,.2-1,.5-1.6,.7-.8,.5-1.8,.6-2.7,.2-1.4-.9-.7-3.1-.1-4.7,2-6-2.3-12.9-8.3-14.6s-12.5,1.1-16.5,5.8-6,11.1-6.7,17.3c-.5,4.5-.5,9.2-2.1,13.5-3.6,9.8-14.2,14.4-21.8,21.2-3,2.7-5.8,6-6.6,10.1s1,8.8,4.7,10.3c4.7,1.8,9.4-1.9,13.6-4.8,3.4-2.4,7.1-4.3,11-5.7,2.6-.9,5.8-1.5,7.8,.4,1.4,1.6,1.9,3.8,1.2,5.8s-1.8,3.8-3.2,5.3c-11.6,14.1-26.5,26.5-31.3,44.3-.7,2.6-.9,6,1.4,7.3,1.7,1,3.8,.1,5.5-.8,17.2-9,30.8-23.7,46.8-34.7,2.2-1.5,4.5-3,7.1-3.2s5.5,1,6.4,3.5c.5,1.7,.3,3.4-.3,5-1.4,4-4.1,7.4-4.9,11.5-.3,1.2-.2,2.4,.3,3.5,1.3,2.3,4.7,1.6,7.1,.6,8.4-3.7,15.9-9.1,22.1-15.8,5.1-5.4,9.5-12.1,10.2-19.6,.4-2.5,0-5.1-1.2-7.4-1.3-1.9-3-3.5-5.1-4.6-6.5-4.1-13.6-7.3-21.1-9.4-2.9-.8-6.1-1.7-7.7-4.3-1.4-2.3-1-5.3,.2-7.6,1.4-2.3,3.1-4.3,5.2-5.9,12-10.1,25.8-18.9,33.8-32.6,1.2-2.2,2.4-4.8,1.6-7.1s-3.9-5.1-5.2-2.9"/><g><path class="cls-1" d="M108.85,1.03c-2.5-1.5-5.7,.4-8,1.4-2.6,1.1-5.1,2.3-7.5,3.7-5,2.8-9.8,5.9-14.7,8.9-2.4,1.5-4.9,2.9-7.4,4.2-1.1,.6-2.2,1.1-3.4,1.7-.5,.2-1,.5-1.6,.7l-.2,.1q-.5,.1,0,.2l.3,.3c.1,.5,.1,.6,.1,.3,.1-.4,.2-.8,.2-1.1,.1-.4,.3-.9,.4-1.3,.4-1.1,.5-2.3,.6-3.5,0-2.2-.6-4.4-1.6-6.4-1.9-4-5.5-6.9-9.8-8-4.7-1-9.7,0-13.7,2.7-8.9,5.8-11.5,16.5-12.3,26.4-.4,4.9-1.1,9.5-4,13.6-2.3,3.2-5.5,5.8-8.6,8.1C10.55,58.23,.85,63.93,.05,73.73c-.4,4.2,1.6,9,5.4,11.1,4.9,2.7,10.1,.1,14.2-2.6s8.4-5.7,13.3-7.4c1.4-.5,3.7-1.3,5-.2,1.5,1.3,.6,3.7-.2,5-1.3,2-2.7,3.9-4.3,5.6-1.5,1.8-3.1,3.6-4.7,5.3-3.2,3.5-6.3,7-9.4,10.6-6.1,7.2-11.6,15.1-14.6,24.1-1.3,4-2.5,9.9,1.9,12.4,2.6,1.5,5.6,.5,8.1-.8,2.3-1.2,4.5-2.5,6.6-3.8,8.7-5.5,16.6-12.2,24.5-18.8,3.9-3.2,7.8-6.4,11.8-9.4,2.1-1.6,4.2-3.1,6.5-4.4,1.7-1,3.9-1.8,5.8-.9,4.1,1.9-.5,8.4-1.7,10.9-2,4-4.6,11.1,1.1,13.4,4.3,1.7,9.4-1.4,13.1-3.5,4.5-2.5,8.8-5.5,12.7-9,7.5-6.6,14.4-15.2,15.5-25.4,.4-2.7,0-5.5-1-8-1.1-2.3-2.8-4.3-5-5.6-4.5-3-9.2-5.6-14.2-7.6-2.5-1-5-1.9-7.6-2.7-2-.6-4.3-1-6.1-2.2-4.3-2.8-.5-8,2.1-10.4,7.1-6.5,15.2-11.9,22.4-18.5,3.6-3.2,6.8-6.8,9.8-10.6,2.9-3.8,6.8-9,5.6-14-1-4.1-6.6-8.5-9.9-3.9-.7,1.2-.3,2.7,.9,3.4,1.2,.7,2.7,.3,3.4-.9-.1,.2-.3,.3-.5,.4-1.3,.4-.6-.2-.4,.1-.1-.1,.4,.3,.5,.4,.6,.5,1,1.2,1.2,1.9,.3,2.1-1.2,4.3-2.2,6-2.4,3.8-5.3,7.4-8.5,10.6-6.5,6.6-14,12-21.2,17.8-3.7,3-7.9,6.1-9.5,10.9-1.7,4.7,.5,9.9,5.1,11.9,2.2,.9,4.4,1.6,6.7,2.2,2.4,.7,4.8,1.6,7.2,2.6,2.4,1,4.8,2.2,7.1,3.4,2.2,1.1,4.3,2.4,6.3,3.9,1.7,1.2,2.8,3.1,3.1,5.1,.2,2.3,0,4.6-.7,6.8-1.3,4.4-3.5,8.4-6.5,11.8-6.2,7.4-14,13.4-22.8,17.4-.8,.4-1.7,.8-2.6,1-.6,.2-1.3,.2-1.9,.1-.3-.1-.5-.4-.5-1.1,.1-1.1,.4-2.3,.9-3.3,1.8-4.5,5.4-8.8,4.8-13.8s-5.7-7.5-10.2-6.7c-2.6,.6-5,1.7-7.1,3.3-2,1.4-4,2.8-5.9,4.3-7.9,6-15.3,12.6-23.1,18.7-3.8,3-7.8,5.8-11.9,8.4-2.1,1.3-4.3,2.6-6.5,3.7-.7,.5-1.6,.7-2.5,.6-.5-.1-.7-.6-.8-1.2-.1-1.8,.2-3.5,.9-5.2,.6-2,1.4-4,2.3-5.9,2-4,4.3-7.8,7-11.4,5.4-7.2,11.7-13.6,17.6-20.4,3.1-3.5,7-7.4,7.3-12.3,.2-2.6-1-5-3-6.6-2-1.3-4.3-1.7-6.6-1.1-2.3,.5-4.6,1.3-6.7,2.4-2.3,1-4.5,2.3-6.6,3.6-2.1,1.4-4,2.9-6.2,4.1-1.7,.9-3.6,1.9-5.6,1.4-3.3-.7-4.5-4.9-3.8-7.9,1-4.2,4.2-7.3,7.4-10,6.4-5.2,13.9-9.2,18.5-16.3,2.7-4.1,3.6-8.9,4-13.8s.9-9.6,2.7-14.2c1.5-4.1,4.4-7.6,8.1-9.9,3.2-1.9,7.4-2.9,10.9-1.3,3.2,1.5,5.5,4.5,5.9,8.1,.2,2-.7,3.6-1,5.5-.4,2.5,.5,5.1,3.2,5.7,2.5,.5,5.4-1.4,7.6-2.4,2.4-1.2,4.7-2.5,7-3.9,4.7-2.8,9.3-5.8,14.1-8.6,2.2-1.3,4.5-2.5,6.9-3.7,1-.5,2.1-1,3.1-1.4,.6-.3,1.3-.5,1.9-.7l.9-.3,.2-.1c.6-.1,.5-.2-.2-.2,2.7,1.7,5.2-2.6,2.4-4.3h0Z"/><path class="cls-1" d="M103.7,7.32c.3-.2,.6-.4,.9-.6q.1-.1,.2-.2c.2-.2-.4,.3-.2,.2s-.6,.2-.2,.1c.3-.1,.5-.2,.7-.3s.4-.3,.6-.5c.1-.1,.3-.3,0,0s.2-.1,.3-.1l.7-.3c.4-.2,.8-.5,1.3-.6l-1.3,.4h.1l-.7-.1c.4,.1,.7,.2,1.1,.1h.4c.2,0,.4-.1,.6-.3,.3,0-.3,.1-.2,.1,.2,0,.3,0,.4-.1l-.7,.1c.8-.1,1.6-.2,2.4-.1l-.7-.1,.6,.1q.2,.1-.2-.1c.1,0,.2,.1,.2,.1,1.2,.7,2.7,.3,3.4-.9,.7-1.2,.3-2.7-.9-3.4-1-.6-2.3-.9-3.5-.8-.4,0-.8,.1-1.3,.1-.4,0-.8,.1-1.2,.2-.2,.1-.4,.1-.5,.2-.1,0-.3,.1-.4,.2l.4-.2h1.3c-1-.2-2,0-2.8,.5-.5,.2-1,.5-1.4,.7s-.7,.4-1,.7l-.1,.1,.8-.5c-.2,0-.4,.1-.6,.2-.4,.2-.8,.4-1.2,.8-.1,0-.2,.2-.2,.2l.3-.2-.2,.1c-1.2,.7-1.6,2.2-.9,3.4,.9,1.1,2.4,1.5,3.7,.8h0Z"/></g></g><g><path class="cls-1" d="M190.51,85.9c-2.37,2.84-5.73,5.05-10.06,6.61-4.34,1.57-9.14,2.35-14.41,2.35-5.54,0-10.39-1.21-14.57-3.62-4.17-2.42-7.4-5.93-9.67-10.53-2.27-4.6-3.44-10-3.49-16.22v-4.35c0-6.39,1.08-11.92,3.23-16.59s5.26-8.25,9.32-10.72c4.06-2.48,8.81-3.71,14.26-3.71,7.59,0,13.52,1.81,17.8,5.43s6.81,8.88,7.6,15.8h-12.83c-.59-3.66-1.88-6.34-3.89-8.04-2.01-1.7-4.77-2.55-8.28-2.55-4.48,0-7.9,1.69-10.24,5.05-2.34,3.37-3.53,8.38-3.56,15.03v4.09c0,6.71,1.27,11.78,3.82,15.21s6.28,5.14,11.21,5.14,8.48-1.05,10.59-3.16v-11.03h-12v-9.71h25.18v25.53Z"/><path class="cls-1" d="M223.25,58.83l13.32-28.83h14.41l-21.01,40.78v23.2h-13.4v-23.2l-21.01-40.78h14.46l13.23,28.83Z"/><path class="cls-1" d="M274.05,30l16.44,46.41,16.35-46.41h17.31v63.98h-13.23v-17.49l1.32-30.19-17.27,47.68h-9.05l-17.23-47.64,1.32,30.15v17.49h-13.18V30h17.23Z"/><path class="cls-1" d="M408.7,85.9c-2.37,2.84-5.73,5.05-10.06,6.61-4.34,1.57-9.14,2.35-14.41,2.35-5.54,0-10.39-1.21-14.57-3.62-4.18-2.42-7.4-5.93-9.67-10.53-2.27-4.6-3.44-10-3.49-16.22v-4.35c0-6.39,1.08-11.92,3.23-16.59,2.15-4.67,5.26-8.25,9.32-10.72,4.06-2.48,8.81-3.71,14.26-3.71,7.59,0,13.52,1.81,17.8,5.43s6.81,8.88,7.6,15.8h-12.83c-.59-3.66-1.88-6.34-3.89-8.04-2.01-1.7-4.77-2.55-8.28-2.55-4.48,0-7.9,1.69-10.24,5.05-2.34,3.37-3.53,8.38-3.56,15.03v4.09c0,6.71,1.27,11.78,3.82,15.21s6.28,5.14,11.21,5.14,8.48-1.05,10.59-3.16v-11.03h-12v-9.71h25.18v25.53Z"/><path class="cls-1" d="M467.8,30v42.14c0,7-2.19,12.54-6.57,16.61-4.38,4.07-10.36,6.11-17.95,6.11s-13.4-1.98-17.8-5.93-6.64-9.39-6.72-16.3V30h13.18v42.23c0,4.19,1,7.24,3.01,9.16s4.78,2.88,8.33,2.88c7.41,0,11.18-3.9,11.29-11.69V30h13.23Z"/><path class="cls-1" d="M492.63,93.99h-13.18V30h13.18v63.98Z"/><path class="cls-1" d="M504.85,93.99V30h19.69c5.62,0,10.66,1.27,15.1,3.8,4.44,2.53,7.9,6.14,10.39,10.81s3.74,9.98,3.74,15.93v2.94c0,5.95-1.22,11.24-3.67,15.86-2.45,4.63-5.9,8.22-10.35,10.77s-9.48,3.84-15.07,3.87h-19.82Zm13.18-53.31v42.71h6.37c5.16,0,9.1-1.68,11.82-5.05,2.72-3.37,4.12-8.19,4.17-14.46v-3.38c0-6.5-1.35-11.43-4.04-14.79s-6.64-5.03-11.82-5.03h-6.5Z"/><path class="cls-1" d="M601.84,66.26h-25.31v17.14h29.71v10.59h-42.89V30h42.8v10.68h-29.62v15.25h25.31v10.33Z"/></g></g></g></svg>