<?xml version="1.0" encoding="UTF-8"?><svg id="Layer_1" xmlns="http://www.w3.org/2000/svg" width="300" height="300" viewBox="0 0 300 300"><defs><style>.cls-1{fill:#fff;}.cls-2{fill:#1d1e1b;}</style></defs><g id="Group_293"><path id="Path_19" class="cls-1" d="M264.41,12.35c-1.2-.74-2.71-.8-3.96-.15-5.97,1.81-11.81,4.01-17.49,6.58-5.92,2.64-11.7,5.57-17.39,8.62-5.69,3.05-11.49,6.3-17.2,9.49-5.61,3.12-11.22,6.23-16.91,9.23-5.39,2.81-10.88,5.47-16.54,7.8-1.25,.5-2.44,.99-3.67,1.46-1.95,1.06-4.26,1.23-6.34,.47-3.34-1.87-1.54-6.5-.26-9.91,4.67-12.47-5.46-27.05-19.19-30.63-14.04-2.96-28.61,1.67-38.37,12.19-8.93,10.13-14.4,22.84-15.62,36.28-.4,9.57-2.05,19.05-4.91,28.2-8.42,20.41-32.84,30.09-50.63,44.41-7.3,5.12-12.67,12.56-15.22,21.1-2.11,8.88,2.53,17.99,10.95,21.5,10.83,3.79,21.88-4.01,31.46-10.03,8.01-5.02,16.61-9.06,25.6-12.01,5.76-2.76,12.52-2.47,18.03,.76,3.27,3.14,4.35,7.93,2.76,12.17-1.68,4.17-4.22,7.94-7.45,11.07-26.77,29.47-61.37,55.48-72.56,92.62-1.64,5.43-1.99,12.62,3.35,15.3,4.33,1.4,9.07,.8,12.91-1.65,39.9-18.79,71.51-49.7,108.75-72.73,4.9-3.48,10.54-5.8,16.47-6.77,6.03-.98,12.03,1.96,14.96,7.32,1.06,3.48,.79,7.24-.78,10.53-3.22,8.3-9.5,15.5-11.49,24.13-.77,2.42-.53,5.05,.66,7.29,3.12,4.78,10.87,3.47,16.39,1.25,19.11-7.59,36.57-18.79,51.45-32.99,11.84-11.36,21.97-25.24,23.74-40.94,.88-5.35-.12-10.84-2.82-15.54-3.12-4.13-7.18-7.45-11.84-9.7-15.37-8.74-31.85-15.36-49-19.69-6.81-.77-13.12-3.93-17.82-8.91-2.89-4.98-2.72-11.18,.45-15.99,3.24-4.82,7.38-8.98,12.19-12.24,27.85-21.24,59.96-39.48,78.43-68.21,3.46-4.16,4.84-9.66,3.74-14.96-1.79-5.02-9-10.6-12.02-6.15"/><path id="Path_20" class="cls-1" d="M265.68,10.2c-2.7-1.19-5.79-1.05-8.37,.37-2.76,.89-5.74,1.96-8.55,3.09-5.78,2.31-11.44,4.92-17,7.72-11.22,5.65-22.05,12.01-33.04,18.03-5.49,3-11.02,5.94-16.67,8.62-2.72,1.29-5.45,2.49-8.22,3.65-1.25,.52-2.54,1.04-3.82,1.51-1.06,.52-2.23,.73-3.4,.62-1.61-.38-1.05-2.41-.71-3.67,.58-2.14,1.56-4.15,1.99-6.33,.84-4.3,.42-8.76-1.21-12.83-3.56-8.71-10.91-15.31-19.95-17.93-10.06-2.53-20.7-1.12-29.75,3.93-9.19,5.1-16.56,12.95-21.07,22.44-4.45,10.07-7.06,20.86-7.7,31.85-.36,5.81-1.36,11.56-2.97,17.16-1.44,4.32-3.63,8.35-6.46,11.92-5.95,6.94-12.94,12.92-20.72,17.72-7.92,5.32-16.08,10.3-23.55,16.26-8.8,5.92-14.8,15.17-16.62,25.62-.87,9.27,4.49,17.99,13.15,21.4,11.01,3.87,22.08-3.12,31.03-8.8,4.88-3.14,9.95-5.97,15.19-8.45,5.05-2.47,10.34-4.42,15.79-5.81,4.27-1.62,9.07-.93,12.7,1.84,2.63,3.64,2.61,8.57-.06,12.19-2.89,4.34-6.27,8.34-10.06,11.92-3.53,3.74-7.11,7.36-10.72,10.98-7.29,7.32-14.69,14.56-21.82,22.08-14.41,14.1-25.91,30.89-33.86,49.41-2.79,7.32-6.74,20.14,2.82,24.47,5.53,1.63,11.51,.71,16.3-2.49,4.99-2.39,10.14-5.12,15.06-7.95,19.17-11.68,37.63-24.48,55.29-38.33,9.01-6.72,18.08-13.37,27.43-19.61,4.65-3.12,9.35-6.23,14.26-8.92,4.36-2.76,9.49-4.04,14.63-3.64,4.35,.21,8.04,3.25,9.06,7.49-.21,5.53-2.1,10.86-5.42,15.28-2.93,4.6-5.29,9.53-7.04,14.69-2.16,4.87-.55,10.59,3.83,13.61,4.24,1.81,9.03,1.9,13.33,.25,5.15-1.73,10.16-3.88,14.96-6.42,9.96-4.93,19.39-10.87,28.14-17.72,8.8-6.7,16.71-14.5,23.53-23.22,6.63-8.2,11.03-17.97,12.78-28.37,1.01-5.58,.33-11.33-1.94-16.52-2.67-4.77-6.68-8.64-11.54-11.14-10.15-6.02-20.85-11.07-31.96-15.08-5.55-2.04-11.18-3.83-16.89-5.37-4.87-.97-9.63-2.45-14.19-4.41-4.27-1.75-6.99-5.99-6.8-10.6,.59-5.07,3.11-9.72,7.04-12.98,3.96-3.59,8.16-6.93,12.56-9.97,4.3-3.15,8.68-6.3,13.05-9.4,8.73-6.23,17.46-12.43,25.81-19.09,8.22-6.39,15.89-13.47,22.92-21.15,3.46-3.84,6.68-7.89,9.63-12.14,3.62-4.38,5.86-9.73,6.45-15.39-.14-4.76-2.57-9.15-6.52-11.8-2.91-2.77-7.52-2.65-10.28,.27-.17,.17-.32,.36-.47,.54-.7,1.19-.3,2.72,.89,3.41,0,0,0,0,0,0,1.2,.67,2.7,.27,3.42-.9,.18-.23,.45-.38,.75-.4,.66,.02,1.3,.21,1.87,.55,1.65,.93,3.04,2.26,4.04,3.87,1.96,4.45,1.21,9.62-1.93,13.33-5.36,8.51-11.81,16.28-19.18,23.13-15.43,13.75-31.79,26.4-48.97,37.88-4.36,3.15-8.7,6.32-12.92,9.65-4.37,3.12-8.03,7.13-10.75,11.76-4.9,7.69-2.65,17.89,5.04,22.79,1.19,.76,2.47,1.36,3.81,1.79,4.85,1.78,9.82,3.24,14.86,4.36,5.53,1.54,10.99,3.31,16.37,5.32,10.74,3.89,21.06,8.86,30.8,14.83,4.57,2.4,8.05,6.47,9.71,11.36,1.12,4.9,.98,10-.4,14.82-2.74,9.89-7.8,18.99-14.76,26.53-14.46,16.15-32.23,28.99-52.1,37.66-4.13,2.22-8.63,3.66-13.28,4.25-1.72,.21-3.46-.15-4.94-1.05-1.41-1.24-2.02-3.16-1.59-4.99,1.12-5.2,3.24-10.13,6.23-14.53,3-4.52,5.26-9.49,6.69-14.72,1.34-5.26-.67-10.81-5.07-14-3.86-2.58-8.52-3.68-13.13-3.09-5.73,.92-11.19,3.07-16.01,6.3-4.64,2.82-9.18,5.8-13.68,8.85-18.18,12.36-35.35,26.15-53.31,38.83-8.96,6.33-18.13,12.4-27.67,17.83-4.87,2.77-9.83,5.39-14.89,7.77-3.53,1.66-9.69,4.36-12.7,.36-1.68-3.32-1.83-7.2-.42-10.64,1.3-4.46,2.97-8.8,4.99-12.98,4.21-8.64,9.38-16.78,15.41-24.27,13.03-15.33,26.86-29.97,41.42-43.84,3.57-3.64,7.09-7.32,10.51-11.11,3.85-3.64,6.66-8.23,8.15-13.32,1.21-4.87-.37-10-4.1-13.35-4.07-2.85-9.17-3.83-14.01-2.69-5.45,1.08-10.75,2.82-15.79,5.17-5.27,2.23-10.37,4.84-15.26,7.81-4.89,2.99-9.35,6.1-14.41,8.52-4.32,2.42-9.32,3.35-14.23,2.67-8.08-2.11-13.13-10.14-11.54-18.33,1.65-9.75,9.83-17.13,17.36-22.76,14.61-10.94,32.28-19.01,43.35-34.03,2.85-3.86,5.04-8.17,6.48-12.74,1.55-5.55,2.52-11.25,2.89-17,.55-10.53,2.99-20.88,7.21-30.55,4.25-9.09,11.41-16.51,20.35-21.06,8.5-4.48,18.5-5.16,27.53-1.87,7.81,3.14,13.48,10.04,15.04,18.31,.27,1.84,.21,3.72-.16,5.54-.45,2.11-1.4,4.07-1.96,6.16-.73,2.17-.67,4.52,.18,6.65,1.22,2.23,3.61,3.55,6.15,3.39,2.78-.35,5.47-1.17,7.97-2.44,2.86-1.17,5.68-2.41,8.48-3.74,5.41-2.54,10.71-5.33,15.97-8.19,10.88-5.92,21.57-12.2,32.59-17.86,5.16-2.64,10.39-5.17,15.75-7.39,2.64-1.09,5.31-2.11,8.02-3.04,1.32-.45,2.64-.88,3.96-1.29,.95-.29,2.14-.98,3.04-.4,2.72,1.74,5.22-2.57,2.49-4.31h-.02Z"/></g><g id="Group_294"><path id="Path_21" class="cls-2" d="M251.93,14.96c.98-.24,1.61-.87,2.64-1.03,.21-.02,.42-.05,.62-.1,.22-.06,.43-.15,.62-.27,.52-.24,1.06-.43,1.61-.58l4.17-1.25c.12-.04,.24-.06,.37-.05,.1,0,.19,.06,.29,.07,.12,0,.24-.02,.35-.07,.67-.19,1.36-.29,2.06-.3l1.83-.11c1.02-.08,2.04-.1,3.07-.06,1.08,.06,2.15,.27,3.17,.62"/><path id="Path_22" class="cls-1" d="M252.59,17.36c.81-.24,1.59-.75,2.31-.96,.21-.06,.66-.09,.95-.17,.43-.15,.84-.33,1.25-.53,.82-.31,1.69-.52,2.52-.76,.99-.34,2-.62,3.02-.83h-1.33c1,.11,2.02,.05,3-.19,.85-.07,1.71-.11,2.57-.15,1.75-.18,3.51-.01,5.2,.48,1.33,.37,2.71-.41,3.07-1.75,.37-1.33-.41-2.71-1.75-3.07-3.87-1-7.92-1.02-11.8-.07h1.33c-1.19-.18-2.4-.03-3.5,.43-1.06,.31-2.11,.62-3.17,.93-.54,.17-1.04,.4-1.56,.62-.31,.1-.62,.17-.94,.22-.88,.19-1.69,.76-2.49,.99-1.33,.37-2.11,1.74-1.74,3.07,.37,1.33,1.74,2.11,3.07,1.74h-.02Z"/></g></svg>