<?xml version="1.0" encoding="UTF-8"?><svg id="Layer_1" xmlns="http://www.w3.org/2000/svg" width="300" height="300" viewBox="0 0 300 300"><defs><style>.cls-1{fill:#2f3635;}</style></defs><path id="Icon_awesome-arrow-circle-up" class="cls-1" d="M23.75,150.33c0-69.73,56.52-126.25,126.25-126.25s126.25,56.52,126.25,126.25-56.52,126.25-126.25,126.25h0c-69.71,.01-126.24-56.5-126.25-126.21,0-.01,0-.03,0-.04Zm73.1,14.71l36.85-38.43v92.96c-.02,6.73,5.43,12.2,12.16,12.22,.02,0,.04,0,.06,0h8.15c6.73,.01,12.2-5.43,12.21-12.17,0-.02,0-.03,0-.05V126.61l36.87,38.43c4.67,4.88,12.42,5.04,17.3,.37,.06-.05,.11-.11,.17-.16l5.55-5.6c4.77-4.74,4.79-12.44,.05-17.21-.02-.02-.03-.03-.05-.05l-67.5-67.55c-4.74-4.77-12.44-4.79-17.21-.05-.02,.02-.03,.03-.05,.05l-67.61,67.57c-4.77,4.74-4.79,12.44-.05,17.21,.02,.02,.03,.03,.05,.05l5.55,5.6c4.82,4.78,12.61,4.74,17.38-.09,.04-.04,.09-.09,.13-.13Z"/></svg>