<svg id="Twitter_personkort" data-name="Twitter personkort" xmlns="http://www.w3.org/2000/svg" width="32.409" height="26.373" viewBox="0 0 32.409 26.373">
  <path id="Icon_ionic-logo-twitter" data-name="Icon ionic-logo-twitter" d="M33.823,7.625A13.443,13.443,0,0,1,30,8.676,6.672,6.672,0,0,0,32.93,4.994a13.212,13.212,0,0,1-4.224,1.614,6.647,6.647,0,0,0-11.5,4.547,6.51,6.51,0,0,0,.172,1.518A18.844,18.844,0,0,1,3.666,5.716,6.662,6.662,0,0,0,5.733,14.6a6.494,6.494,0,0,1-3.022-.831v.082a6.655,6.655,0,0,0,5.336,6.524,6.693,6.693,0,0,1-1.751.234,6.273,6.273,0,0,1-1.25-.124,6.66,6.66,0,0,0,6.215,4.622A13.331,13.331,0,0,1,3,27.961a13.478,13.478,0,0,1-1.586-.1,18.586,18.586,0,0,0,10.178,3.008c12.245,0,18.935-10.144,18.935-18.942,0-.288-.007-.577-.021-.858A13.536,13.536,0,0,0,33.823,7.625Z" transform="translate(-1.413 -4.5)" fill="#fff"/>
</svg>
