<?xml version="1.0" encoding="UTF-8"?><svg id="Layer_1" xmlns="http://www.w3.org/2000/svg" width="300" height="300" viewBox="0 0 300 300"><defs><style>.cls-1{fill:#2f3635;}</style></defs><path id="Icon_ionic-logo-twitter" class="cls-1" d="M292.5,62.5c-10.68,4.72-21.99,7.83-33.58,9.24,12.22-7.31,21.36-18.82,25.73-32.37-11.47,6.83-24.04,11.64-37.14,14.2-22.04-23.59-59.03-24.84-82.62-2.8-11.85,11.07-18.57,26.57-18.55,42.79-.02,4.49,.48,8.97,1.51,13.35-47.05-2.34-90.88-24.59-120.54-61.19-15.53,26.76-7.57,60.99,18.18,78.15-9.32-.23-18.45-2.74-26.57-7.31v.72c-.01,27.86,19.61,51.86,46.92,57.38-5.02,1.36-10.2,2.05-15.4,2.05-3.69,0-7.37-.36-10.99-1.09,7.66,23.84,29.62,40.17,54.66,40.64-20.71,16.29-46.3,25.13-72.65,25.09-4.66,0-9.32-.29-13.95-.85,26.63,17.33,57.73,26.52,89.5,26.46,107.69,0,166.51-89.23,166.51-166.59,0-2.54-.06-5.07-.18-7.55,11.45-8.29,21.32-18.56,29.17-30.32Z"/></svg>