<?xml version="1.0" encoding="UTF-8"?><svg id="Layer_1" xmlns="http://www.w3.org/2000/svg" width="300" height="300" viewBox="0 0 300 300"><defs><style>.cls-1{fill:none;stroke:#fff;stroke-miterlimit:10;stroke-width:4px;}</style></defs><path class="cls-1" d="M157.58,92.38s-6.24,28.79-50.26,74.82c-35.84,37.47-21.69,93.93,50.26,93.93,82.21,0,50.42-73.25,34.17-93.75-27.26-34.39-34.17-75-34.17-75Z"/><path class="cls-1" d="M218.35,34.7s-2.7,12.44-21.71,32.32c-15.48,16.19-9.37,40.57,21.71,40.57,35.51,0,21.78-31.64,14.76-40.5-11.77-14.85-14.76-32.4-14.76-32.4Z"/><path class="cls-1" d="M90.37,89.21s-1.62,7.47-13.03,19.4c-9.29,9.72-5.62,24.35,13.03,24.35,21.31,0,13.07-18.99,8.86-24.31-7.07-8.92-8.86-19.44-8.86-19.44Z"/></svg>